<svg width="19" height="22" viewBox="0 0 19 22" fill="none" xmlns="http://www.w3.org/2000/svg">
<path d="M18.3428 17.1447C18.0101 17.9133 17.6163 18.6208 17.16 19.2713C16.5381 20.158 16.0288 20.7719 15.6364 21.1127C15.028 21.6722 14.3762 21.9587 13.6782 21.975C13.1771 21.975 12.5728 21.8324 11.8693 21.5432C11.1636 21.2553 10.515 21.1127 9.92198 21.1127C9.30003 21.1127 8.63299 21.2553 7.9195 21.5432C7.20493 21.8324 6.62928 21.9832 6.18916 21.9981C5.51981 22.0266 4.85264 21.7319 4.18668 21.1127C3.76164 20.742 3.22999 20.1064 2.59309 19.2061C1.90976 18.2446 1.34796 17.1297 0.907839 15.8587C0.436484 14.4857 0.200195 13.1563 0.200195 11.8692C0.200195 10.3948 0.518778 9.12321 1.15689 8.0576C1.6584 7.20166 2.32557 6.52647 3.16059 6.03081C3.99562 5.53514 4.89786 5.28256 5.86949 5.2664C6.40114 5.2664 7.09833 5.43085 7.96472 5.75405C8.82867 6.07834 9.38341 6.24279 9.62662 6.24279C9.80845 6.24279 10.4247 6.0505 11.4694 5.66714C12.4573 5.31162 13.2911 5.16441 13.9742 5.2224C15.8251 5.37178 17.2157 6.10142 18.1405 7.41595C16.4851 8.41896 15.6662 9.82379 15.6825 11.626C15.6975 13.0297 16.2067 14.1979 17.2076 15.1254C17.6611 15.5558 18.1676 15.8885 18.7312 16.1248C18.609 16.4793 18.48 16.8188 18.3428 17.1447ZM14.0978 0.440125C14.0978 1.54038 13.6958 2.56768 12.8946 3.51854C11.9277 4.64892 10.7582 5.30211 9.49001 5.19904C9.47385 5.06705 9.46448 4.92812 9.46448 4.78214C9.46448 3.7259 9.92429 2.59552 10.7408 1.67127C11.1485 1.20331 11.667 0.814209 12.2957 0.503814C12.9231 0.19805 13.5166 0.0289566 14.0747 0C14.091 0.147086 14.0978 0.294182 14.0978 0.440111V0.440125Z" fill="black"/>
</svg>
