<svg width="25" height="34" viewBox="0 0 25 34" fill="none" xmlns="http://www.w3.org/2000/svg">
<path d="M16.4996 18C16.4996 19.0609 16.0782 20.0783 15.328 20.8284C14.5779 21.5786 13.5605 22 12.4996 22C11.4387 22 10.4213 21.5786 9.67116 20.8284C8.92102 20.0783 8.49959 19.0609 8.49959 18M4.13281 17.4014L3.43281 25.8014C3.28243 27.6059 3.20724 28.5082 3.51227 29.2042C3.78027 29.8157 4.24462 30.3204 4.83177 30.6382C5.50006 31 6.40545 31 8.21623 31H16.783C18.5937 31 19.4991 31 20.1674 30.6382C20.7546 30.3204 21.2189 29.8157 21.4869 29.2042C21.7919 28.5082 21.7167 27.6059 21.5664 25.8014L20.8664 17.4014C20.737 15.8488 20.6723 15.0724 20.3285 14.4849C20.0257 13.9674 19.5748 13.5526 19.0341 13.2938C18.42 13 17.641 13 16.083 13L8.91623 13C7.35821 13 6.57921 13 5.9651 13.2938C5.42433 13.5526 4.97349 13.9674 4.67071 14.4849C4.32689 15.0724 4.26219 15.8487 4.13281 17.4014Z" stroke="black" stroke-width="2" stroke-linecap="round" stroke-linejoin="round"/>
<rect x="8.5" width="16" height="19" rx="8" fill="#EEBFD1"/>
<path d="M16.008 13.596C15.352 13.596 14.764 13.428 14.244 13.092C13.732 12.756 13.324 12.268 13.02 11.628C12.724 10.988 12.576 10.212 12.576 9.3C12.576 8.388 12.724 7.612 13.02 6.972C13.324 6.332 13.732 5.844 14.244 5.508C14.764 5.172 15.352 5.004 16.008 5.004C16.656 5.004 17.24 5.172 17.76 5.508C18.28 5.844 18.688 6.332 18.984 6.972C19.28 7.612 19.428 8.388 19.428 9.3C19.428 10.212 19.28 10.988 18.984 11.628C18.688 12.268 18.28 12.756 17.76 13.092C17.24 13.428 16.656 13.596 16.008 13.596ZM16.008 12.528C16.448 12.528 16.832 12.408 17.16 12.168C17.496 11.928 17.756 11.568 17.94 11.088C18.132 10.608 18.228 10.012 18.228 9.3C18.228 8.588 18.132 7.992 17.94 7.512C17.756 7.032 17.496 6.672 17.16 6.432C16.832 6.192 16.448 6.072 16.008 6.072C15.568 6.072 15.18 6.192 14.844 6.432C14.508 6.672 14.244 7.032 14.052 7.512C13.868 7.992 13.776 8.588 13.776 9.3C13.776 10.012 13.868 10.608 14.052 11.088C14.244 11.568 14.508 11.928 14.844 12.168C15.18 12.408 15.568 12.528 16.008 12.528Z" fill="black"/>
</svg>
