<svg width="20" height="21" viewBox="0 0 20 21" fill="none" xmlns="http://www.w3.org/2000/svg">
<path d="M10 0C4.47715 0 0 4.70101 0 10.5C0 16.299 4.47715 21 10 21C15.5228 21 20 16.299 20 10.5C19.9936 4.70381 15.5202 0.00675042 10 0Z" fill="#872D43"/>
<path d="M15.7725 7.17503L10.0684 15.3029C9.93234 15.4924 9.72948 15.6166 9.50539 15.6475C9.2813 15.6785 9.05478 15.6136 8.87671 15.4674L4.80338 12.0479C4.44393 11.7459 4.38573 11.1951 4.67338 10.8177C4.96102 10.4402 5.4856 10.3791 5.84504 10.6812L9.24171 13.5345L14.4309 6.1399C14.601 5.8718 14.8978 5.72356 15.2032 5.75406C15.5087 5.78456 15.7735 5.98885 15.8925 6.28583C16.0115 6.58281 15.9654 6.92442 15.7725 7.17503Z" fill="white"/>
</svg>
