<svg width="20" height="22" viewBox="0 0 20 22" fill="none" xmlns="http://www.w3.org/2000/svg">
<path d="M10 0.5C4.47715 0.5 0 5.20101 0 11C0 16.799 4.47715 21.5 10 21.5C15.5228 21.5 20 16.799 20 11C19.9936 5.20381 15.5202 0.50675 10 0.5Z" fill="#EEBFD1"/>
<path d="M15.7725 7.67503L10.0684 15.8029C9.93234 15.9924 9.72948 16.1166 9.50539 16.1475C9.2813 16.1785 9.05478 16.1136 8.87671 15.9674L4.80338 12.5479C4.44393 12.2459 4.38573 11.6951 4.67338 11.3177C4.96102 10.9402 5.4856 10.8791 5.84504 11.1812L9.24171 14.0345L14.4309 6.6399C14.601 6.3718 14.8978 6.22356 15.2032 6.25406C15.5087 6.28456 15.7735 6.48885 15.8925 6.78583C16.0115 7.08281 15.9654 7.42442 15.7725 7.67503Z" fill="white"/>
</svg>
