<svg width="31" height="19" viewBox="0 0 31 19" fill="none" xmlns="http://www.w3.org/2000/svg">
<path d="M0.2 16.416C0.2 16.096 0.208 15.848 0.224 15.672C0.256 15.496 0.368 15.32 0.56 15.144C0.752 14.952 1.04 14.856 1.424 14.856C1.472 14.856 1.576 14.872 1.736 14.904C1.608 13.416 1.544 12 1.544 10.656C1.544 8.224 1.648 6.2 1.856 4.584C1.504 4.584 1.064 4.544 0.536 4.464C0.44 4.336 0.392 3.856 0.392 3.024C0.392 2.192 0.416 1.72 0.464 1.608C0.944 1.208 1.912 1.008 3.368 1.008C3.8 1.008 4.352 1.04 5.024 1.104C5.088 1.312 5.12 1.632 5.12 2.064C5.568 1.792 6.152 1.552 6.872 1.344C7.592 1.136 8.24 1.032 8.816 1.032C10.048 1.032 11.072 1.536 11.888 2.544C12.72 3.536 13.136 4.664 13.136 5.928C13.136 7.416 12.552 8.688 11.384 9.744C13.016 10.672 13.832 12 13.832 13.728C13.832 14.944 13.408 16 12.56 16.896C11.728 17.792 10.712 18.24 9.512 18.24C7.096 18.24 5.528 17.912 4.808 17.256C4.808 17.672 4.696 17.92 4.472 18C4.248 18.096 3.728 18.144 2.912 18.144C1.984 18.144 1.136 18.048 0.368 17.856C0.256 17.328 0.2 16.848 0.2 16.416ZM4.976 15.144C4.976 15.24 5.416 15.376 6.296 15.552C7.176 15.712 7.76 15.792 8.048 15.792C8.56 15.792 8.992 15.568 9.344 15.12C9.712 14.656 9.896 14.096 9.896 13.44C9.896 12.784 9.768 12.184 9.512 11.64C9.256 11.096 8.856 10.824 8.312 10.824C7.816 10.824 7.16 10.936 6.344 11.16C5.528 11.368 5.112 11.576 5.096 11.784C5.08 11.944 5.064 12.16 5.048 12.432C5.048 12.704 5.04 13.104 5.024 13.632C5.008 14.144 4.992 14.648 4.976 15.144ZM4.976 7.944C4.976 8.04 5.416 8.176 6.296 8.352C7.176 8.512 7.76 8.592 8.048 8.592C8.56 8.592 8.992 8.368 9.344 7.92C9.712 7.456 9.896 6.896 9.896 6.24C9.896 5.584 9.768 4.984 9.512 4.44C9.256 3.896 8.856 3.624 8.312 3.624C7.816 3.624 7.16 3.736 6.344 3.96C5.528 4.168 5.112 4.376 5.096 4.584C5.08 4.744 5.064 4.96 5.048 5.232C5.048 5.504 5.04 5.904 5.024 6.432C5.008 6.944 4.992 7.448 4.976 7.944ZM15.734 9.744C15.734 7.296 16.358 5.232 17.606 3.552C18.87 1.872 20.542 1.032 22.622 1.032C24.142 1.032 25.262 1.384 25.982 2.088C26.014 1.608 26.182 1.312 26.486 1.2C26.886 1.024 27.374 0.935999 27.95 0.935999C28.702 0.935999 29.294 1.096 29.726 1.416C29.742 1.592 29.774 1.872 29.822 2.256C29.886 2.624 29.934 2.96 29.966 3.264C29.998 3.568 30.014 3.848 30.014 4.104C30.014 5.096 29.726 5.848 29.15 6.36C28.814 6.728 28.262 6.912 27.494 6.912C26.694 6.912 26.094 6.728 25.694 6.36C25.678 6.328 25.67 6.256 25.67 6.144C25.67 5.952 25.694 5.824 25.742 5.76C25.47 5.168 25.03 4.712 24.422 4.392C23.814 4.072 23.262 3.912 22.766 3.912C21.838 3.912 20.974 4.512 20.174 5.712C19.39 6.896 18.998 8.256 18.998 9.792C18.998 11.248 19.366 12.432 20.102 13.344C20.854 14.24 21.718 14.688 22.694 14.688C23.19 14.688 23.742 14.576 24.35 14.352C24.958 14.128 25.406 13.816 25.694 13.416C25.646 13.128 25.622 12.968 25.622 12.936C25.622 12.904 25.622 12.872 25.622 12.84C25.638 12.808 25.646 12.784 25.646 12.768C26.238 12.496 26.758 12.36 27.206 12.36C27.654 12.36 28.31 12.52 29.174 12.84C29.75 13.352 30.038 14.096 30.038 15.072C30.038 15.328 30.014 15.616 29.966 15.936C29.934 16.24 29.886 16.576 29.822 16.944C29.774 17.312 29.742 17.592 29.726 17.784C29.23 18.184 28.59 18.384 27.806 18.384C27.23 18.384 26.79 18.256 26.486 18C26.15 17.872 25.982 17.56 25.982 17.064C24.926 17.784 23.854 18.144 22.766 18.144C21.918 18.144 21.086 17.968 20.27 17.616C19.454 17.264 18.702 16.752 18.014 16.08C17.326 15.408 16.774 14.528 16.358 13.44C15.942 12.336 15.734 11.104 15.734 9.744Z" fill="#872D43"/>
</svg>
