<svg width="151" height="19" viewBox="0 0 151 19" fill="none" xmlns="http://www.w3.org/2000/svg">
<path d="M0.2 16.416C0.2 16.096 0.208 15.848 0.224 15.672C0.256 15.496 0.368 15.32 0.56 15.144C0.752 14.952 1.04 14.856 1.424 14.856C1.472 14.856 1.576 14.872 1.736 14.904C1.608 13.416 1.544 12 1.544 10.656C1.544 8.224 1.648 6.2 1.856 4.584C1.504 4.584 1.064 4.544 0.536 4.464C0.44 4.336 0.392 3.856 0.392 3.024C0.392 2.192 0.416 1.72 0.464 1.608C0.944 1.208 1.912 1.008 3.368 1.008C3.8 1.008 4.352 1.04 5.024 1.104C5.088 1.312 5.12 1.632 5.12 2.064C5.568 1.792 6.152 1.552 6.872 1.344C7.592 1.136 8.24 1.032 8.816 1.032C10.048 1.032 11.072 1.536 11.888 2.544C12.72 3.536 13.136 4.664 13.136 5.928C13.136 7.416 12.552 8.688 11.384 9.744C13.016 10.672 13.832 12 13.832 13.728C13.832 14.944 13.408 16 12.56 16.896C11.728 17.792 10.712 18.24 9.512 18.24C7.096 18.24 5.528 17.912 4.808 17.256C4.808 17.672 4.696 17.92 4.472 18C4.248 18.096 3.728 18.144 2.912 18.144C1.984 18.144 1.136 18.048 0.368 17.856C0.256 17.328 0.2 16.848 0.2 16.416ZM4.976 15.144C4.976 15.24 5.416 15.376 6.296 15.552C7.176 15.712 7.76 15.792 8.048 15.792C8.56 15.792 8.992 15.568 9.344 15.12C9.712 14.656 9.896 14.096 9.896 13.44C9.896 12.784 9.768 12.184 9.512 11.64C9.256 11.096 8.856 10.824 8.312 10.824C7.816 10.824 7.16 10.936 6.344 11.16C5.528 11.368 5.112 11.576 5.096 11.784C5.08 11.944 5.064 12.16 5.048 12.432C5.048 12.704 5.04 13.104 5.024 13.632C5.008 14.144 4.992 14.648 4.976 15.144ZM4.976 7.944C4.976 8.04 5.416 8.176 6.296 8.352C7.176 8.512 7.76 8.592 8.048 8.592C8.56 8.592 8.992 8.368 9.344 7.92C9.712 7.456 9.896 6.896 9.896 6.24C9.896 5.584 9.768 4.984 9.512 4.44C9.256 3.896 8.856 3.624 8.312 3.624C7.816 3.624 7.16 3.736 6.344 3.96C5.528 4.168 5.112 4.376 5.096 4.584C5.08 4.744 5.064 4.96 5.048 5.232C5.048 5.504 5.04 5.904 5.024 6.432C5.008 6.944 4.992 7.448 4.976 7.944ZM15.518 12.984C15.518 11.176 16.166 9.52 17.462 8.016C18.774 6.512 20.238 5.76 21.854 5.76C22.846 5.76 23.694 6.064 24.398 6.672C25.102 7.28 25.454 8.072 25.454 9.048C25.454 10.184 24.982 11.16 24.038 11.976C23.11 12.776 21.878 13.176 20.342 13.176C19.462 13.176 18.846 13.04 18.494 12.768C18.51 13.536 18.782 14.152 19.31 14.616C19.838 15.064 20.446 15.288 21.134 15.288C22.03 15.288 22.758 14.936 23.318 14.232C23.318 14.104 23.342 13.968 23.39 13.824C24.094 13.248 24.854 12.96 25.67 12.96C25.83 12.96 25.95 12.968 26.03 12.984C27.086 13.56 27.734 14.504 27.974 15.816C27.958 15.944 27.894 16.08 27.782 16.224C27.686 16.368 27.582 16.496 27.47 16.608C27.358 16.704 27.198 16.824 26.99 16.968C26.782 17.096 26.614 17.192 26.486 17.256C26.374 17.32 26.198 17.416 25.958 17.544C25.734 17.672 25.606 17.744 25.574 17.76C25.478 17.76 25.398 17.752 25.334 17.736C25.27 17.704 25.206 17.664 25.142 17.616C25.094 17.552 25.062 17.512 25.046 17.496C25.03 17.464 24.998 17.4 24.95 17.304C24.902 17.192 24.87 17.128 24.854 17.112C23.67 17.896 22.398 18.288 21.038 18.288C19.518 18.288 18.214 17.8 17.126 16.824C16.054 15.848 15.518 14.568 15.518 12.984ZM19.262 10.176C19.262 10.704 19.646 10.968 20.414 10.968C20.99 10.968 21.542 10.832 22.07 10.56C22.598 10.288 22.862 9.952 22.862 9.552C22.862 9.28 22.766 9 22.574 8.712C22.398 8.408 22.11 8.256 21.71 8.256C21.214 8.256 20.678 8.456 20.102 8.856C19.542 9.256 19.262 9.696 19.262 10.176ZM28.9963 13.032C28.9963 11.88 29.1643 10.768 29.5003 9.696C29.8523 8.608 30.4043 7.672 31.1562 6.888C31.9243 6.104 32.8203 5.712 33.8443 5.712C34.3083 5.712 34.7163 5.792 35.0683 5.952C35.4363 6.112 35.7163 6.312 35.9083 6.552C36.1163 6.776 36.2843 7.008 36.4123 7.248C36.5403 7.472 36.6283 7.664 36.6763 7.824C36.7243 7.984 36.7563 8.064 36.7723 8.064C36.7723 7.2 36.7643 6.632 36.7483 6.36C37.0683 6.088 37.3963 5.912 37.7323 5.832C38.0843 5.736 38.5643 5.688 39.1723 5.688C39.6523 5.688 40.0763 5.704 40.4443 5.736C40.8283 5.768 41.1163 5.808 41.3083 5.856C41.5003 5.904 41.6523 5.952 41.7643 6C41.8923 6.048 41.9723 6.08 42.0043 6.096L42.0523 6.12C42.1163 6.264 42.1483 6.712 42.1483 7.464C42.1483 8.232 42.1163 8.688 42.0523 8.832C42.0043 8.944 41.7483 9.048 41.2843 9.144C40.8203 9.224 40.4203 9.264 40.0843 9.264C39.9243 9.264 39.7483 9.248 39.5563 9.216C39.6043 9.312 39.6283 9.72 39.6283 10.44C39.6283 12.536 39.5563 13.696 39.4123 13.92C39.5243 13.872 39.6603 13.848 39.8203 13.848C40.5243 13.848 41.2123 13.92 41.8843 14.064C42.0123 14.16 42.0763 14.84 42.0763 16.104C42.0763 16.808 42.0523 17.256 42.0043 17.448C41.8923 17.624 41.5403 17.792 40.9483 17.952C40.3563 18.112 39.6843 18.192 38.9323 18.192C37.5723 18.192 36.7323 18.16 36.4123 18.096C36.3003 17.792 36.2443 17.536 36.2443 17.328C36.2443 17.2 36.2683 17.104 36.3163 17.04C36.1243 17.104 35.5803 17.344 34.6843 17.76C33.7883 18.176 33.1403 18.384 32.7403 18.384C31.5083 18.384 30.5723 17.864 29.9323 16.824C29.3083 15.784 28.9963 14.52 28.9963 13.032ZM31.9963 12.408C31.9963 13.304 32.2683 14.064 32.8123 14.688C33.3723 15.296 33.9563 15.6 34.5643 15.6C34.9003 15.6 35.2843 15.512 35.7163 15.336C36.1483 15.16 36.3803 15 36.4123 14.856C36.4603 14.12 36.5003 13.448 36.5323 12.84C36.5803 12.216 36.6123 11.744 36.6283 11.424C36.6603 11.088 36.6763 10.872 36.6763 10.776V10.488C36.6763 10.152 36.4523 9.824 36.0043 9.504C35.5723 9.168 35.0843 9 34.5403 9C33.7403 9 33.1163 9.368 32.6683 10.104C32.2203 10.824 31.9963 11.592 31.9963 12.408ZM43.6614 8.52C43.6614 7.416 43.7414 6.736 43.9014 6.48C45.1014 6.16 46.1414 6 47.0214 6C47.6454 6 48.3654 6.144 49.1814 6.432C49.2934 6.512 49.4134 6.8 49.5414 7.296C49.6694 7.776 49.7334 8.192 49.7334 8.544C49.7334 9.072 49.5894 9.528 49.3014 9.912C49.1254 10.024 48.8934 10.08 48.6054 10.08C48.3814 10.08 48.1654 10.04 47.9574 9.96C47.9574 10.008 47.9494 10.216 47.9334 10.584C47.9334 10.952 47.9334 11.184 47.9334 11.28C47.9334 12.288 48.2054 13.176 48.7494 13.944C49.3094 14.696 50.0054 15.072 50.8374 15.072C51.5574 15.072 52.2134 14.784 52.8054 14.208C53.4134 13.616 53.7174 12.696 53.7174 11.448C53.7174 11 53.6934 10.416 53.6454 9.696C53.4534 9.808 53.2054 9.864 52.9014 9.864C52.6134 9.864 52.4374 9.824 52.3734 9.744C52.2134 9.744 52.1334 9.424 52.1334 8.784C52.1334 8.64 52.2134 7.984 52.3734 6.816C53.5254 6.256 55.0134 5.976 56.8374 5.976C58.2134 5.976 59.0934 6.208 59.4774 6.672C59.6214 6.864 59.6934 7.2 59.6934 7.68C59.6934 8.672 59.4774 9.288 59.0454 9.528C58.4694 9.672 57.9894 9.744 57.6054 9.744C57.3814 9.744 57.1894 9.728 57.0294 9.696C57.0294 10.16 57.0454 10.912 57.0774 11.952C57.1094 12.976 57.1254 13.752 57.1254 14.28C57.1894 14.28 57.4534 14.264 57.9174 14.232C58.3814 14.184 58.6534 14.16 58.7334 14.16C58.7974 14.16 58.8934 14.176 59.0214 14.208C59.1494 14.24 59.2454 14.256 59.3094 14.256C59.3734 14.32 59.4054 14.488 59.4054 14.76C59.4054 15.192 59.3414 15.736 59.2134 16.392C59.0854 17.032 58.9654 17.424 58.8534 17.568C58.3734 17.856 57.4614 18 56.1174 18C55.2534 18 54.6774 17.944 54.3894 17.832C54.1014 17.72 53.9574 17.472 53.9574 17.088C53.9574 16.608 53.9974 16.128 54.0774 15.648C52.5734 17.376 50.9494 18.24 49.2054 18.24C46.4534 18.24 45.0774 16.304 45.0774 12.432C45.0774 11.664 45.1254 10.912 45.2214 10.176C45.2054 10.192 45.1334 10.2 45.0054 10.2C44.7654 10.2 44.3894 10.16 43.8774 10.08C43.7334 9.92 43.6614 9.4 43.6614 8.52ZM60.788 6.6C60.788 6.248 60.836 6.024 60.932 5.928C61.22 5.88 61.596 5.856 62.06 5.856H62.588V1.344C63.42 1.28 63.956 1.248 64.196 1.248C64.436 1.248 64.924 1.28 65.66 1.344L65.9 5.904C67.66 5.984 68.668 6.096 68.924 6.24C69.164 6.656 69.284 7.296 69.284 8.16C69.284 8.512 69.236 8.736 69.14 8.832C68.644 8.896 68.076 8.928 67.436 8.928C67.228 8.928 66.916 8.928 66.5 8.928C66.084 8.912 65.772 8.904 65.564 8.904C65.564 9.432 65.556 10.096 65.54 10.896C65.54 11.696 65.54 12.264 65.54 12.6C65.54 13.848 65.62 14.616 65.78 14.904C65.956 15.176 66.42 15.312 67.172 15.312C67.46 15.312 67.7 15.296 67.892 15.264L67.748 14.76L69.956 14.256C70.116 14.72 70.196 15.264 70.196 15.888C70.196 16.928 70.092 17.584 69.884 17.856C68.316 18.08 67.012 18.192 65.972 18.192C64.612 18.192 63.716 18 63.284 17.616C63.092 17.44 62.94 17.208 62.828 16.92C62.716 16.632 62.636 16.224 62.588 15.696C62.556 15.152 62.532 14.616 62.516 14.088C62.5 13.544 62.476 12.76 62.444 11.736C62.412 10.712 62.372 9.744 62.324 8.832C61.812 8.784 61.42 8.68 61.148 8.52C60.908 8.104 60.788 7.464 60.788 6.6ZM71.3461 12.984C71.3461 11.176 71.9941 9.52 73.2901 8.016C74.6021 6.512 76.0661 5.76 77.6821 5.76C78.6741 5.76 79.5221 6.064 80.2261 6.672C80.9301 7.28 81.2821 8.072 81.2821 9.048C81.2821 10.184 80.8101 11.16 79.8661 11.976C78.9381 12.776 77.7061 13.176 76.1701 13.176C75.2901 13.176 74.6741 13.04 74.3221 12.768C74.3381 13.536 74.6101 14.152 75.1381 14.616C75.6661 15.064 76.2741 15.288 76.9621 15.288C77.8581 15.288 78.5861 14.936 79.1461 14.232C79.1461 14.104 79.1701 13.968 79.2181 13.824C79.9221 13.248 80.6821 12.96 81.4981 12.96C81.6581 12.96 81.7781 12.968 81.8581 12.984C82.9141 13.56 83.5621 14.504 83.8021 15.816C83.7861 15.944 83.7221 16.08 83.6101 16.224C83.5141 16.368 83.4101 16.496 83.2981 16.608C83.1861 16.704 83.0261 16.824 82.8181 16.968C82.6101 17.096 82.4421 17.192 82.3141 17.256C82.2021 17.32 82.0261 17.416 81.7861 17.544C81.5621 17.672 81.4341 17.744 81.4021 17.76C81.3061 17.76 81.2261 17.752 81.1621 17.736C81.0981 17.704 81.0341 17.664 80.9701 17.616C80.9221 17.552 80.8901 17.512 80.8741 17.496C80.8581 17.464 80.8261 17.4 80.7781 17.304C80.7301 17.192 80.6981 17.128 80.6821 17.112C79.4981 17.896 78.2261 18.288 76.8661 18.288C75.3461 18.288 74.0421 17.8 72.9541 16.824C71.8821 15.848 71.3461 14.568 71.3461 12.984ZM75.0901 10.176C75.0901 10.704 75.4741 10.968 76.2421 10.968C76.8181 10.968 77.3701 10.832 77.8981 10.56C78.4261 10.288 78.6901 9.952 78.6901 9.552C78.6901 9.28 78.5941 9 78.4021 8.712C78.2261 8.408 77.9381 8.256 77.5381 8.256C77.0421 8.256 76.5061 8.456 75.9301 8.856C75.3701 9.256 75.0901 9.696 75.0901 10.176ZM76.0981 3.72C76.7541 2.088 77.4421 0.879999 78.1621 0.0959988C78.3061 0.0639992 78.5221 0.0479994 78.8101 0.0479994C79.5141 0.0479994 80.1621 0.255999 80.7541 0.671999C80.3221 1.424 79.6901 2.152 78.8581 2.856C78.0421 3.56 77.3221 3.912 76.6981 3.912C76.4741 3.912 76.2741 3.848 76.0981 3.72ZM84.7809 9.744C84.7809 7.296 85.4049 5.232 86.6529 3.552C87.9169 1.872 89.5889 1.032 91.6689 1.032C93.1889 1.032 94.3089 1.384 95.0289 2.088C95.0609 1.608 95.2289 1.312 95.5329 1.2C95.9329 1.024 96.4209 0.935999 96.9969 0.935999C97.7489 0.935999 98.3409 1.096 98.7729 1.416C98.7889 1.592 98.8209 1.872 98.8689 2.256C98.9329 2.624 98.9809 2.96 99.0129 3.264C99.0449 3.568 99.0609 3.848 99.0609 4.104C99.0609 5.096 98.7729 5.848 98.1969 6.36C97.8609 6.728 97.3089 6.912 96.5409 6.912C95.7409 6.912 95.1409 6.728 94.7409 6.36C94.7249 6.328 94.7169 6.256 94.7169 6.144C94.7169 5.952 94.7409 5.824 94.7889 5.76C94.5169 5.168 94.0769 4.712 93.4689 4.392C92.8609 4.072 92.3089 3.912 91.8129 3.912C90.8849 3.912 90.0209 4.512 89.2209 5.712C88.4369 6.896 88.0449 8.256 88.0449 9.792C88.0449 11.248 88.4129 12.432 89.1489 13.344C89.9009 14.24 90.7649 14.688 91.7409 14.688C92.2369 14.688 92.7889 14.576 93.3969 14.352C94.0049 14.128 94.4529 13.816 94.7409 13.416C94.6929 13.128 94.6689 12.968 94.6689 12.936C94.6689 12.904 94.6689 12.872 94.6689 12.84C94.6849 12.808 94.6929 12.784 94.6929 12.768C95.2849 12.496 95.8049 12.36 96.2529 12.36C96.7009 12.36 97.3569 12.52 98.2209 12.84C98.7969 13.352 99.0849 14.096 99.0849 15.072C99.0849 15.328 99.0609 15.616 99.0129 15.936C98.9809 16.24 98.9329 16.576 98.8689 16.944C98.8209 17.312 98.7889 17.592 98.7729 17.784C98.2769 18.184 97.6369 18.384 96.8529 18.384C96.2769 18.384 95.8369 18.256 95.5329 18C95.1969 17.872 95.0289 17.56 95.0289 17.064C93.9729 17.784 92.9009 18.144 91.8129 18.144C90.9649 18.144 90.1329 17.968 89.3169 17.616C88.5009 17.264 87.7489 16.752 87.0609 16.08C86.3729 15.408 85.8209 14.528 85.4049 13.44C84.9889 12.336 84.7809 11.104 84.7809 9.744ZM100.952 7.512C100.952 6.856 101 6.392 101.096 6.12C102.008 5.848 102.896 5.712 103.76 5.712C104.8 5.712 105.6 5.928 106.16 6.36C106.144 6.632 106.136 7.04 106.136 7.584L106.232 7.392C106.28 7.264 106.368 7.112 106.496 6.936C106.64 6.744 106.808 6.56 107 6.384C107.192 6.192 107.464 6.032 107.816 5.904C108.168 5.776 108.56 5.712 108.992 5.712C110.208 5.712 111.24 6.232 112.088 7.272C111.976 7.976 111.696 8.512 111.248 8.88C110.8 9.248 110.352 9.448 109.904 9.48C109.312 9.064 108.744 8.856 108.2 8.856C106.616 8.856 105.824 9.864 105.824 11.88C105.824 12.568 105.912 13.32 106.088 14.136C106.12 14.056 106.344 14.016 106.76 14.016C107.24 14.016 107.536 14.072 107.648 14.184C107.84 14.488 107.936 14.984 107.936 15.672C107.936 16.712 107.752 17.392 107.384 17.712C106.568 17.888 105.584 17.976 104.432 17.976C102.544 17.976 101.448 17.8 101.144 17.448C101.096 17.256 101.072 16.768 101.072 15.984C101.072 14.864 101.12 14.264 101.216 14.184C101.328 14.04 101.64 13.968 102.152 13.968C102.52 13.968 102.792 14.024 102.968 14.136C102.824 13.768 102.752 12.528 102.752 10.416C102.752 9.712 102.776 9.312 102.824 9.216C102.632 9.248 102.456 9.264 102.296 9.264C101.72 9.264 101.32 9.12 101.096 8.832C101 8.592 100.952 8.152 100.952 7.512ZM112.785 13.032C112.785 11.88 112.953 10.768 113.289 9.696C113.641 8.608 114.193 7.672 114.945 6.888C115.713 6.104 116.609 5.712 117.633 5.712C118.097 5.712 118.505 5.792 118.857 5.952C119.225 6.112 119.505 6.312 119.697 6.552C119.905 6.776 120.073 7.008 120.201 7.248C120.329 7.472 120.417 7.664 120.465 7.824C120.513 7.984 120.545 8.064 120.561 8.064C120.561 7.2 120.553 6.632 120.537 6.36C120.857 6.088 121.185 5.912 121.521 5.832C121.873 5.736 122.353 5.688 122.961 5.688C123.441 5.688 123.865 5.704 124.233 5.736C124.617 5.768 124.905 5.808 125.097 5.856C125.289 5.904 125.441 5.952 125.553 6C125.681 6.048 125.761 6.08 125.793 6.096L125.841 6.12C125.905 6.264 125.937 6.712 125.937 7.464C125.937 8.232 125.905 8.688 125.841 8.832C125.793 8.944 125.537 9.048 125.073 9.144C124.609 9.224 124.209 9.264 123.873 9.264C123.713 9.264 123.537 9.248 123.345 9.216C123.393 9.312 123.417 9.72 123.417 10.44C123.417 12.536 123.345 13.696 123.201 13.92C123.313 13.872 123.449 13.848 123.609 13.848C124.313 13.848 125.001 13.92 125.673 14.064C125.801 14.16 125.865 14.84 125.865 16.104C125.865 16.808 125.841 17.256 125.793 17.448C125.681 17.624 125.329 17.792 124.737 17.952C124.145 18.112 123.473 18.192 122.721 18.192C121.361 18.192 120.521 18.16 120.201 18.096C120.089 17.792 120.033 17.536 120.033 17.328C120.033 17.2 120.057 17.104 120.105 17.04C119.913 17.104 119.369 17.344 118.473 17.76C117.577 18.176 116.929 18.384 116.529 18.384C115.297 18.384 114.361 17.864 113.721 16.824C113.097 15.784 112.785 14.52 112.785 13.032ZM115.785 12.408C115.785 13.304 116.057 14.064 116.601 14.688C117.161 15.296 117.745 15.6 118.353 15.6C118.689 15.6 119.073 15.512 119.505 15.336C119.937 15.16 120.169 15 120.201 14.856C120.249 14.12 120.289 13.448 120.321 12.84C120.369 12.216 120.401 11.744 120.417 11.424C120.449 11.088 120.465 10.872 120.465 10.776V10.488C120.465 10.152 120.241 9.824 119.793 9.504C119.361 9.168 118.873 9 118.329 9C117.529 9 116.905 9.368 116.457 10.104C116.009 10.824 115.785 11.592 115.785 12.408ZM127.186 6.6C127.186 6.248 127.234 6.024 127.33 5.928C127.618 5.88 127.994 5.856 128.458 5.856H128.986V1.344C129.818 1.28 130.354 1.248 130.594 1.248C130.834 1.248 131.322 1.28 132.058 1.344L132.298 5.904C134.058 5.984 135.066 6.096 135.322 6.24C135.562 6.656 135.682 7.296 135.682 8.16C135.682 8.512 135.634 8.736 135.538 8.832C135.042 8.896 134.474 8.928 133.834 8.928C133.626 8.928 133.314 8.928 132.898 8.928C132.482 8.912 132.17 8.904 131.962 8.904C131.962 9.432 131.954 10.096 131.938 10.896C131.938 11.696 131.938 12.264 131.938 12.6C131.938 13.848 132.018 14.616 132.178 14.904C132.354 15.176 132.818 15.312 133.57 15.312C133.858 15.312 134.098 15.296 134.29 15.264L134.146 14.76L136.354 14.256C136.514 14.72 136.594 15.264 136.594 15.888C136.594 16.928 136.49 17.584 136.282 17.856C134.714 18.08 133.41 18.192 132.37 18.192C131.01 18.192 130.114 18 129.682 17.616C129.49 17.44 129.338 17.208 129.226 16.92C129.114 16.632 129.034 16.224 128.986 15.696C128.954 15.152 128.93 14.616 128.914 14.088C128.898 13.544 128.874 12.76 128.842 11.736C128.81 10.712 128.77 9.744 128.722 8.832C128.21 8.784 127.818 8.68 127.546 8.52C127.306 8.104 127.186 7.464 127.186 6.6ZM137.745 12.984C137.745 11.176 138.393 9.52 139.689 8.016C141.001 6.512 142.465 5.76 144.081 5.76C145.073 5.76 145.921 6.064 146.625 6.672C147.329 7.28 147.681 8.072 147.681 9.048C147.681 10.184 147.209 11.16 146.265 11.976C145.337 12.776 144.105 13.176 142.569 13.176C141.689 13.176 141.073 13.04 140.721 12.768C140.737 13.536 141.009 14.152 141.537 14.616C142.065 15.064 142.673 15.288 143.361 15.288C144.257 15.288 144.985 14.936 145.545 14.232C145.545 14.104 145.569 13.968 145.617 13.824C146.321 13.248 147.081 12.96 147.897 12.96C148.057 12.96 148.177 12.968 148.257 12.984C149.313 13.56 149.961 14.504 150.201 15.816C150.185 15.944 150.121 16.08 150.009 16.224C149.913 16.368 149.809 16.496 149.697 16.608C149.585 16.704 149.425 16.824 149.217 16.968C149.009 17.096 148.841 17.192 148.713 17.256C148.601 17.32 148.425 17.416 148.185 17.544C147.961 17.672 147.833 17.744 147.801 17.76C147.705 17.76 147.625 17.752 147.561 17.736C147.497 17.704 147.433 17.664 147.369 17.616C147.321 17.552 147.289 17.512 147.273 17.496C147.257 17.464 147.225 17.4 147.177 17.304C147.129 17.192 147.097 17.128 147.081 17.112C145.897 17.896 144.625 18.288 143.265 18.288C141.745 18.288 140.441 17.8 139.353 16.824C138.281 15.848 137.745 14.568 137.745 12.984ZM141.489 10.176C141.489 10.704 141.873 10.968 142.641 10.968C143.217 10.968 143.769 10.832 144.297 10.56C144.825 10.288 145.089 9.952 145.089 9.552C145.089 9.28 144.993 9 144.801 8.712C144.625 8.408 144.337 8.256 143.937 8.256C143.441 8.256 142.905 8.456 142.329 8.856C141.769 9.256 141.489 9.696 141.489 10.176Z" fill="white"/>
</svg>
