<svg width="510" height="32" viewBox="0 0 510 32" fill="none" xmlns="http://www.w3.org/2000/svg">
<path d="M0.5 4C0.5 2.067 2.067 0.5 4 0.5H42C43.933 0.5 45.5 2.067 45.5 4V28C45.5 29.933 43.933 31.5 42 31.5H4C2.067 31.5 0.5 29.933 0.5 28V4Z" fill="white"/>
<path d="M0.5 4C0.5 2.067 2.067 0.5 4 0.5H42C43.933 0.5 45.5 2.067 45.5 4V28C45.5 29.933 43.933 31.5 42 31.5H4C2.067 31.5 0.5 29.933 0.5 28V4Z" stroke="#E4E7EC"/>
<path fill-rule="evenodd" clip-rule="evenodd" d="M14.3341 21.1441H11.5877L9.52833 13.0563C9.43058 12.6843 9.22304 12.3554 8.91774 12.2003C8.15584 11.8108 7.31628 11.5007 6.40039 11.3444V11.033H10.8245C11.4351 11.033 11.893 11.5007 11.9694 12.044L13.0379 17.878L15.7829 11.033H18.4529L14.3341 21.1441ZM19.9794 21.1441H17.3857L19.5214 11.033H22.1151L19.9794 21.1441ZM25.4707 13.8341C25.547 13.2895 26.0049 12.9781 26.5392 12.9781C27.3788 12.8999 28.2933 13.0563 29.0565 13.4445L29.5145 11.2676C28.7512 10.9562 27.9117 10.7998 27.1498 10.7998C24.6324 10.7998 22.8007 12.2003 22.8007 14.1441C22.8007 15.6228 24.0982 16.3993 25.0141 16.867C26.0049 17.3334 26.3865 17.6448 26.3102 18.1112C26.3102 18.8108 25.547 19.1222 24.7851 19.1222C23.8692 19.1222 22.9533 18.889 22.1151 18.4994L21.6571 20.6777C22.573 21.066 23.5639 21.2223 24.4798 21.2223C27.3024 21.2992 29.0565 19.9 29.0565 17.7998C29.0565 15.1551 25.4707 15.0001 25.4707 13.8341ZM38.1337 21.1441L36.0743 11.033H33.8623C33.4043 11.033 32.9464 11.3444 32.7937 11.8108L28.9802 21.1441H31.6502L32.1831 19.6668H35.4637L35.769 21.1441H38.1337ZM34.2439 13.7559L35.0058 17.5666H32.8701L34.2439 13.7559Z" fill="#172B85"/>
<path d="M58.5 4C58.5 2.067 60.067 0.5 62 0.5H100C101.933 0.5 103.5 2.067 103.5 4V28C103.5 29.933 101.933 31.5 100 31.5H62C60.067 31.5 58.5 29.933 58.5 28V4Z" fill="white"/>
<path d="M58.5 4C58.5 2.067 60.067 0.5 62 0.5H100C101.933 0.5 103.5 2.067 103.5 4V28C103.5 29.933 101.933 31.5 100 31.5H62C60.067 31.5 58.5 29.933 58.5 28V4Z" stroke="#E4E7EC"/>
<path fill-rule="evenodd" clip-rule="evenodd" d="M70.6968 11.1244C70.31 11.5936 69.6912 11.9636 69.0723 11.9108C68.995 11.2764 69.298 10.6023 69.6525 10.186C70.0393 9.70357 70.7161 9.35993 71.264 9.3335C71.3285 9.99434 71.0771 10.642 70.6968 11.1244ZM71.2575 12.0363C70.7123 12.0042 70.2149 12.2044 69.8131 12.3662C69.5545 12.4702 69.3356 12.5584 69.169 12.5584C68.9821 12.5584 68.7541 12.4655 68.4981 12.3613C68.1626 12.2247 67.7791 12.0685 67.377 12.076C66.4552 12.0892 65.5979 12.6245 65.1273 13.477C64.1604 15.1819 64.8759 17.7063 65.8106 19.0941C66.2683 19.7814 66.8162 20.5347 67.5381 20.5083C67.8558 20.496 68.0842 20.3966 68.3207 20.2938C68.5929 20.1753 68.8757 20.0523 69.3173 20.0523C69.7435 20.0523 70.0139 20.1721 70.2735 20.2871C70.5203 20.3965 70.7574 20.5015 71.1092 20.4951C71.857 20.4819 72.3275 19.8078 72.7852 19.1205C73.2791 18.3829 73.4962 17.663 73.5291 17.5538L73.533 17.5411C73.5322 17.5403 73.5261 17.5375 73.5153 17.5324L73.5153 17.5324C73.3502 17.4549 72.0883 16.8626 72.0762 15.2744C72.064 13.9414 73.0771 13.266 73.2366 13.1596L73.2366 13.1596C73.2463 13.1532 73.2528 13.1488 73.2558 13.1465C72.6112 12.1685 71.6056 12.0628 71.2575 12.0363ZM76.4337 20.4224V10.1199H80.2047C82.1514 10.1199 83.5115 11.4944 83.5115 13.5034C83.5115 15.5123 82.1256 16.9001 80.1531 16.9001H77.9937V20.4224H76.4337ZM77.9935 11.468H79.792C81.1457 11.468 81.9192 12.2081 81.9192 13.51C81.9192 14.8119 81.1457 15.5586 79.7855 15.5586H77.9935V11.468ZM88.6619 19.1866C88.2494 19.9928 87.3405 20.5017 86.3607 20.5017C84.9103 20.5017 83.8983 19.6162 83.8983 18.2813C83.8983 16.9596 84.8781 16.1996 86.6894 16.0873L88.6361 15.9683V15.4C88.6361 14.5607 88.1011 14.1048 87.1471 14.1048C86.3607 14.1048 85.787 14.5211 85.671 15.1555H84.2657C84.3109 13.8206 85.5356 12.8492 87.1922 12.8492C88.9778 12.8492 90.1381 13.8074 90.1381 15.2943V20.4224H88.6942V19.1866H88.6619ZM86.7796 19.2791C85.948 19.2791 85.4195 18.8694 85.4195 18.2416C85.4195 17.594 85.9287 17.2173 86.9021 17.1578L88.636 17.0455V17.627C88.636 18.5919 87.8367 19.2791 86.7796 19.2791ZM94.9274 20.8255C94.3022 22.6296 93.5866 23.2244 92.0654 23.2244C91.9493 23.2244 91.5626 23.2111 91.4723 23.1847V21.9489C91.569 21.9622 91.8075 21.9754 91.93 21.9754C92.6197 21.9754 93.0065 21.678 93.245 20.9048L93.3868 20.4488L90.7439 12.9483H92.3748L94.2119 19.0346H94.2441L96.0813 12.9483H97.667L94.9274 20.8255Z" fill="black"/>
<path d="M116.5 4C116.5 2.067 118.067 0.5 120 0.5H158C159.933 0.5 161.5 2.067 161.5 4V28C161.5 29.933 159.933 31.5 158 31.5H120C118.067 31.5 116.5 29.933 116.5 28V4Z" fill="white"/>
<path d="M116.5 4C116.5 2.067 118.067 0.5 120 0.5H158C159.933 0.5 161.5 2.067 161.5 4V28C161.5 29.933 159.933 31.5 158 31.5H120C118.067 31.5 116.5 29.933 116.5 28V4Z" stroke="#E4E7EC"/>
<path fill-rule="evenodd" clip-rule="evenodd" d="M121.333 19.208C121.356 19.084 121.377 18.9638 121.398 18.8461C121.43 18.6641 121.461 18.4877 121.497 18.3113C121.648 17.5137 121.8 16.7171 121.952 15.9204L121.952 15.9204L121.952 15.9204L121.952 15.9204L121.952 15.9203L121.952 15.9202C122.104 15.1236 122.256 14.3269 122.407 13.5292C122.428 13.4281 122.458 13.3608 122.559 13.3439C123.343 13.2261 124.132 13.1419 124.917 13.3397C125.601 13.5081 126.08 13.9922 126.159 14.5605C126.323 15.6929 125.664 16.598 124.686 16.9221C124.17 17.0905 123.646 17.1326 123.113 17.0821C122.987 17.0695 122.949 17.1032 122.928 17.2252C122.815 17.8441 122.697 18.4587 122.575 19.0733C122.567 19.1238 122.521 19.2038 122.491 19.2038C122.206 19.2101 121.926 19.2093 121.634 19.2085H121.634H121.634H121.634H121.634H121.634L121.634 19.2085C121.535 19.2083 121.435 19.208 121.333 19.208ZM123.377 16.0845L123.377 16.0845C123.541 16.0889 123.696 16.0932 123.847 16.076C124.283 16.0297 124.632 15.8318 124.829 15.4151C125.051 14.9436 124.892 14.4427 124.472 14.2953C124.174 14.1901 123.868 14.2111 123.562 14.2532C123.524 14.2574 123.473 14.3164 123.465 14.3543C123.406 14.6628 123.348 14.9727 123.287 15.2942L123.138 16.0802C123.22 16.0802 123.299 16.0824 123.377 16.0845ZM128.774 18.3997C128.708 18.469 128.646 18.5387 128.585 18.6068L128.585 18.6068L128.585 18.6068L128.585 18.6068L128.585 18.6068L128.585 18.6068C128.453 18.754 128.329 18.8937 128.182 19.0059C127.742 19.3469 127.238 19.4227 126.73 19.1869C126.227 18.9554 126.021 18.505 126 17.9746C125.954 16.859 126.344 15.9371 127.28 15.2972C127.868 14.8931 128.543 14.771 129.244 14.8089C129.476 14.8226 129.706 14.8629 129.937 14.9034C130.061 14.9252 130.185 14.947 130.31 14.9647C130.453 14.9857 130.474 15.0657 130.449 15.1878C130.415 15.3634 130.381 15.5389 130.347 15.7142L130.347 15.7142L130.347 15.7143L130.347 15.7143L130.347 15.7143L130.347 15.7155L130.347 15.7156C130.22 16.3719 130.093 17.0267 129.987 17.6841C129.926 18.0605 129.902 18.446 129.878 18.8277L129.878 18.828C129.874 18.8944 129.87 18.9608 129.865 19.027C129.857 19.1617 129.823 19.2164 129.685 19.2122C129.425 19.2038 129.165 19.2038 128.904 19.2122C128.77 19.2164 128.724 19.1659 128.736 19.0354C128.748 18.8912 128.756 18.7427 128.764 18.5883C128.767 18.5264 128.771 18.4636 128.774 18.3997ZM129.068 15.7981C128.661 15.6845 128.321 15.7645 128.036 16.0044C127.498 16.459 127.255 17.0484 127.301 17.7514C127.314 17.9661 127.398 18.1724 127.624 18.265C127.851 18.3576 128.057 18.2903 128.233 18.1387C128.338 18.0461 128.438 17.9408 128.514 17.823C128.81 17.3698 128.891 16.8586 128.973 16.3393L128.973 16.3393L128.973 16.3393L128.973 16.3393L128.973 16.3393L128.973 16.3393C129.002 16.1592 129.03 15.9781 129.068 15.7981ZM135.015 18.1556C135.246 18.8965 135.88 19.309 136.992 19.309C137.756 19.288 138.515 18.8544 138.99 17.9619C139.241 17.482 139.334 16.9684 139.3 16.4296C139.271 15.9118 139.065 15.474 138.645 15.1625C138.205 14.8341 137.701 14.7668 137.164 14.8257C135.368 15.0278 134.633 16.9348 135.015 18.1556ZM136.21 17.5374L136.21 17.5373C136.211 17.5158 136.211 17.4945 136.211 17.4736C136.224 16.9895 136.341 16.5391 136.631 16.1391C136.761 15.9623 136.925 15.8276 137.143 15.7771C137.588 15.6761 137.953 15.9329 137.995 16.417C138.045 17.0105 137.903 17.5578 137.529 18.0335C137.386 18.2103 137.206 18.3324 136.975 18.3534C136.559 18.3913 136.245 18.1093 136.211 17.6672C136.208 17.625 136.209 17.5809 136.21 17.5374ZM140.299 14.9141H141.365C141.348 15.1415 141.331 15.3604 141.31 15.5835C141.349 15.5472 141.387 15.5114 141.424 15.4763L141.424 15.4761L141.424 15.4761L141.424 15.4761L141.424 15.4761C141.502 15.4011 141.578 15.3294 141.655 15.2635C142.07 14.9015 142.544 14.7415 143.094 14.8299C143.547 14.9057 143.862 15.2383 143.913 15.7056C143.967 16.1918 143.876 16.6634 143.786 17.134L143.786 17.134L143.766 17.2379C143.729 17.4283 143.693 17.6187 143.657 17.809L143.656 17.8115C143.576 18.2304 143.497 18.6486 143.413 19.0649C143.401 19.1196 143.338 19.1996 143.296 19.2038C142.935 19.2122 142.574 19.208 142.213 19.2038C142.201 19.2038 142.189 19.1972 142.17 19.1873C142.163 19.1834 142.155 19.179 142.146 19.1743C142.213 18.8249 142.28 18.4713 142.343 18.1177C142.439 17.5746 142.532 17.0358 142.616 16.4928C142.632 16.4001 142.624 16.3033 142.612 16.2107C142.578 15.8866 142.339 15.7392 142.028 15.8361C141.726 15.9329 141.545 16.1686 141.399 16.4296C141.18 16.8127 141.105 17.2379 141.029 17.663V17.663L141.029 17.663C141.01 17.7684 140.992 17.8736 140.973 17.9787C140.909 18.3394 140.845 18.6988 140.773 19.0607C140.761 19.1154 140.698 19.1996 140.656 19.2038C140.361 19.2138 140.064 19.2132 139.748 19.2125H139.748H139.748H139.747H139.747C139.667 19.2124 139.585 19.2122 139.502 19.2122C139.779 17.7641 140.039 16.3454 140.299 14.9141ZM146.351 18.3282C145.906 18.2734 145.608 17.9619 145.637 17.5241C145.73 17.5241 145.823 17.5255 145.914 17.527H145.914C146.097 17.5298 146.277 17.5325 146.456 17.5241C146.888 17.4989 147.312 17.4273 147.707 17.2295C148.21 16.9769 148.445 16.5601 148.407 16.0171C148.37 15.4656 148.072 15.0657 147.539 14.9057C146.741 14.6658 146.007 14.8342 145.381 15.3688C144.622 16.0171 144.336 16.8758 144.446 17.8567C144.521 18.5513 144.899 19.048 145.587 19.2248C146.326 19.4143 147.052 19.3132 147.753 19.027C147.803 19.0059 147.862 18.9259 147.858 18.8754C147.848 18.67 147.827 18.4646 147.806 18.2592C147.801 18.2078 147.796 18.1564 147.79 18.1051C147.777 18.1051 147.766 18.1044 147.759 18.1038C147.747 18.103 147.741 18.1026 147.736 18.1051C147.69 18.1219 147.644 18.1387 147.602 18.1556C147.199 18.3113 146.783 18.3787 146.351 18.3282ZM147.001 16.4633C146.745 16.598 146.082 16.678 145.759 16.6106C145.826 16.0507 146.418 15.6129 146.917 15.735C147.085 15.7771 147.207 15.8655 147.236 16.0465C147.266 16.2233 147.178 16.3707 147.001 16.4633ZM149.83 17.541C149.792 17.9535 150.086 18.2693 150.535 18.3282C150.955 18.3787 151.358 18.3156 151.752 18.1725C151.789 18.1588 151.824 18.1451 151.862 18.1301L151.863 18.1301C151.895 18.1174 151.93 18.1037 151.971 18.0883C151.979 18.1774 151.988 18.2648 151.997 18.351L151.997 18.3511C152.016 18.5293 152.034 18.7024 152.042 18.8755C152.046 18.926 151.987 19.006 151.941 19.027C151.228 19.3217 150.493 19.4227 149.742 19.2164C149.066 19.0312 148.714 18.5387 148.63 17.8651C148.525 17.0022 148.747 16.2234 149.348 15.5835C149.994 14.8973 150.787 14.6532 151.702 14.9058C152.26 15.0615 152.558 15.4656 152.592 16.0339C152.625 16.5896 152.374 17.0064 151.849 17.2505C151.32 17.4947 150.758 17.5326 150.187 17.5452C150.074 17.541 149.956 17.541 149.83 17.541ZM149.952 16.6444C150.028 16.6396 150.103 16.6358 150.177 16.6321C150.363 16.6227 150.543 16.6137 150.72 16.5896C150.888 16.5686 151.056 16.5181 151.207 16.4465C151.371 16.3749 151.45 16.2234 151.425 16.0382C151.4 15.8614 151.282 15.7772 151.119 15.7351C150.623 15.6004 150.007 16.055 149.952 16.6444ZM152.823 18.3282C152.768 18.6144 152.718 18.8965 152.663 19.208C152.747 19.208 152.83 19.2082 152.912 19.2083C153.235 19.209 153.543 19.2096 153.851 19.1996C153.88 19.1996 153.926 19.1196 153.935 19.0691C153.978 18.8588 154.017 18.6475 154.057 18.4363C154.13 18.047 154.203 17.6578 154.296 17.2758C154.501 16.4254 154.85 16.1307 155.677 16.0213C155.71 16.0171 155.765 15.9792 155.773 15.9497C155.826 15.7078 155.873 15.464 155.922 15.2111C155.947 15.0812 155.973 14.9488 156 14.8131C155.202 14.7289 154.757 15.192 154.371 15.7603L154.377 15.6787C154.396 15.4271 154.416 15.1712 154.438 14.9015C154.351 14.9015 154.266 14.9012 154.181 14.901C153.933 14.9002 153.694 14.8994 153.456 14.9057C153.423 14.9099 153.36 14.9857 153.356 15.032C153.266 16.114 153.054 17.1722 152.842 18.2296L152.823 18.3282Z" fill="black"/>
<path fill-rule="evenodd" clip-rule="evenodd" d="M141.711 9.83568C141.668 9.82443 141.626 9.81318 141.583 9.80371C141.453 9.80371 141.323 9.80371 141.185 9.80792C141.137 9.81741 141.09 9.82776 141.042 9.83818C140.984 9.85089 140.925 9.86372 140.866 9.87528C140.223 9.99736 139.619 10.2205 139.036 10.5151C137.772 11.155 136.639 11.9843 135.624 12.9652C134.948 13.6135 134.293 14.2912 133.659 14.9858C132.547 16.2066 131.595 17.5495 130.835 19.0229C130.445 19.7848 130.092 20.5636 129.933 21.4098C129.903 21.5655 129.954 21.7465 130.004 21.9023C130.025 21.9654 130.142 22.0117 130.222 22.037C130.243 22.0454 130.306 21.9402 130.335 21.8812C130.346 21.8584 130.357 21.835 130.367 21.8111C130.55 21.4118 130.796 20.8719 131.01 20.5144C131.463 19.7566 131.821 19.1702 132.329 18.4504C133.143 17.2927 134.095 16.1569 135.093 15.155C136.038 14.2078 136.983 13.3609 138.171 12.721C138.717 12.4305 139.275 12.1443 139.846 11.9085C140.832 11.5002 141.86 11.2224 142.918 11.0666C143.031 11.0498 143.182 10.9614 143.22 10.8688C143.254 10.7846 143.174 10.6246 143.094 10.5446C142.771 10.212 142.393 9.95947 141.923 9.88369C141.852 9.87317 141.782 9.85442 141.711 9.83568ZM132.102 15.5794C132.304 15.0321 132.405 14.4638 132.417 13.8745C132.412 13.8113 132.407 13.7482 132.402 13.685C132.393 13.5587 132.384 13.4324 132.367 13.3061C132.253 12.3295 131.834 11.5002 131.166 10.7888C131.087 10.7088 130.978 10.6456 130.868 10.6078C130.759 10.5657 130.688 10.6288 130.696 10.7551C130.697 10.7578 130.697 10.7604 130.697 10.7631C130.705 10.8701 130.714 10.9809 130.734 11.0877C130.764 11.2559 130.793 11.4243 130.822 11.5928C130.926 12.1919 131.031 12.7924 131.145 13.3903C131.259 13.9923 131.385 14.5901 131.519 15.1837C131.565 15.3731 131.641 15.5625 131.733 15.7393C131.804 15.874 131.905 15.8614 131.997 15.7393L131.997 15.7393C132.039 15.6888 132.081 15.6383 132.102 15.5794Z" fill="#FC461E"/>
<path d="M174.5 4C174.5 2.067 176.067 0.5 178 0.5H216C217.933 0.5 219.5 2.067 219.5 4V28C219.5 29.933 217.933 31.5 216 31.5H178C176.067 31.5 174.5 29.933 174.5 28V4Z" fill="white"/>
<path d="M174.5 4C174.5 2.067 176.067 0.5 178 0.5H216C217.933 0.5 219.5 2.067 219.5 4V28C219.5 29.933 217.933 31.5 216 31.5H178C176.067 31.5 174.5 29.933 174.5 28V4Z" stroke="#E4E7EC"/>
<path fill-rule="evenodd" clip-rule="evenodd" d="M195.411 20.7039V16.7911H197.43C198.258 16.7911 198.956 16.5138 199.526 15.9669L199.662 15.8282C200.703 14.696 200.634 12.9321 199.526 11.8846C198.972 11.33 198.212 11.0296 197.43 11.045H194.188V20.7039H195.411ZM195.411 15.6048V12.2311H197.461C197.902 12.2311 198.319 12.4006 198.631 12.7087C199.291 13.3557 199.306 14.434 198.668 15.1041C198.357 15.4353 197.917 15.6202 197.461 15.6048H195.411ZM205.364 14.6112C204.84 14.126 204.127 13.8795 203.223 13.8795C202.062 13.8795 201.188 14.3108 200.611 15.1658L201.69 15.8513C202.084 15.2659 202.623 14.9732 203.307 14.9732C203.739 14.9732 204.157 15.135 204.483 15.4277C204.802 15.705 204.984 16.1055 204.984 16.5291V16.8141C204.514 16.5522 203.922 16.4136 203.193 16.4136C202.342 16.4136 201.659 16.6139 201.15 17.0221C200.642 17.4303 200.384 17.9695 200.384 18.655C200.368 19.2789 200.634 19.872 201.105 20.2726C201.583 20.7039 202.191 20.9196 202.904 20.9196C203.747 20.9196 204.415 20.5421 204.924 19.7873H204.977V20.7039H206.146V16.6293C206.146 15.7743 205.888 15.0965 205.364 14.6112ZM202.047 19.4869C201.796 19.3021 201.644 19.0017 201.644 18.6782C201.644 18.3161 201.811 18.0157 202.138 17.777C202.472 17.5382 202.889 17.415 203.383 17.415C204.066 17.4072 204.598 17.5613 204.978 17.8694C204.978 18.3932 204.773 18.8476 204.37 19.2327C204.006 19.6025 203.512 19.8104 202.996 19.8104C202.654 19.8181 202.32 19.7026 202.047 19.4869ZM208.773 23.6077L212.858 14.0951H211.529L209.638 18.8399H209.616L207.68 14.0951H206.351L209.031 20.2802L207.513 23.6077H208.773Z" fill="#3C4043"/>
<path d="M191.19 15.9439C191.19 15.5665 191.16 15.1891 191.099 14.8193H185.944V16.9529H188.898C188.776 17.6384 188.381 18.2546 187.804 18.6398V20.0262H189.566C190.598 19.0634 191.19 17.6385 191.19 15.9439Z" fill="#4285F4"/>
<path d="M185.945 21.3662C187.418 21.3662 188.663 20.8732 189.567 20.0259L187.805 18.6395C187.312 18.9784 186.682 19.1709 185.945 19.1709C184.518 19.1709 183.311 18.1927 182.878 16.8833H181.063V18.316C181.99 20.1877 183.88 21.3662 185.945 21.3662Z" fill="#34A853"/>
<path d="M182.878 16.8834C182.65 16.1978 182.65 15.4507 182.878 14.7575V13.3325H181.063C180.281 14.8961 180.281 16.7447 181.063 18.3083L182.878 16.8834Z" fill="#FBBC04"/>
<path d="M185.945 12.47C186.727 12.4546 187.479 12.755 188.041 13.3018L189.605 11.7151C188.61 10.7754 187.304 10.2593 185.945 10.2747C183.88 10.2747 181.99 11.4609 181.063 13.3326L182.878 14.7653C183.311 13.4482 184.518 12.47 185.945 12.47Z" fill="#EA4335"/>
<path d="M232.5 4C232.5 2.067 234.067 0.5 236 0.5H274C275.933 0.5 277.5 2.067 277.5 4V28C277.5 29.933 275.933 31.5 274 31.5H236C234.067 31.5 232.5 29.933 232.5 28V4Z" fill="white"/>
<path d="M232.5 4C232.5 2.067 234.067 0.5 236 0.5H274C275.933 0.5 277.5 2.067 277.5 4V28C277.5 29.933 275.933 31.5 274 31.5H236C234.067 31.5 232.5 29.933 232.5 28V4Z" stroke="#E4E7EC"/>
<path fill-rule="evenodd" clip-rule="evenodd" d="M268.391 18.5975H269.509H269.51C269.627 18.5998 269.724 18.5032 269.728 18.3803V15.1223C269.728 14.7131 269.749 14.3436 269.906 13.974C270.014 13.6929 270.268 13.5036 270.556 13.4896C271.271 13.4896 271.264 14.3136 271.259 14.9608C271.258 15.0154 271.258 15.0687 271.258 15.1202V18.4075C271.272 18.5129 271.355 18.5929 271.456 18.5975H272.584C272.691 18.5998 272.783 18.5186 272.8 18.4075V14.5983C272.8 14.0126 272.8 13.1974 272.507 12.713C272.19 12.191 271.7 12 271.197 12C270.423 12 269.983 12.3946 269.669 13.2224H269.647V12.2965C269.624 12.1997 269.543 12.1306 269.448 12.1274H268.408C268.298 12.1245 268.204 12.2107 268.192 12.3257V18.3803C268.194 18.4964 268.281 18.5914 268.391 18.5975ZM267.338 15.4219C267.338 13.5116 266.438 12.0084 264.772 12.0084C263.15 12.0084 262.249 13.4865 262.249 15.3582C262.249 17.23 263.139 18.7332 264.772 18.7332C266.345 18.7332 267.338 17.2686 267.338 15.4219ZM263.903 15.1672C263.903 14.4281 263.956 13.2443 264.783 13.2443C265.139 13.2443 265.39 13.4124 265.516 13.83C265.663 14.3133 265.684 14.925 265.684 15.4344C265.684 16.2111 265.651 17.4847 264.772 17.4847C263.903 17.4847 263.903 15.9405 263.903 15.1917L263.903 15.1672ZM242.921 18.61H244.042H244.043C244.1 18.6114 244.154 18.5891 244.195 18.5482C244.235 18.5072 244.259 18.451 244.26 18.3918V15.1839L244.26 15.1337C244.259 14.4362 244.259 13.5136 245.034 13.5136C245.751 13.5136 245.74 14.3242 245.731 14.9787V14.9788V14.9788C245.73 15.0494 245.729 15.1181 245.729 15.1839V18.3928C245.731 18.5087 245.818 18.6034 245.928 18.61H247.052C247.108 18.6111 247.162 18.5887 247.203 18.5478C247.243 18.5069 247.267 18.4508 247.268 18.3918V15.1839L247.268 15.1076C247.267 14.7677 247.266 14.3091 247.373 14.0241C247.482 13.7328 247.746 13.5378 248.043 13.5283C248.368 13.5283 248.619 13.6431 248.703 14.0502C248.745 14.2462 248.74 14.7004 248.736 15.0016C248.735 15.0727 248.734 15.1353 248.734 15.1839V18.3928C248.736 18.5089 248.823 18.6039 248.933 18.61H250.054C250.11 18.6114 250.165 18.5891 250.205 18.5482C250.246 18.5072 250.269 18.451 250.271 18.3918V14.5722C250.271 14.4791 250.272 14.3839 250.274 14.2878L250.274 14.2876C250.283 13.7173 250.293 13.1102 249.988 12.6743C249.618 12.1799 249.023 11.9335 248.432 12.0298C247.841 12.1261 247.345 12.55 247.135 13.1389C246.82 12.3737 246.37 12.0177 245.679 12.0177C244.988 12.0177 244.474 12.3737 244.202 13.1389H244.181V12.3487C244.175 12.236 244.09 12.1461 243.983 12.1399H242.937C242.822 12.1387 242.726 12.2346 242.723 12.356V18.4106C242.733 18.5195 242.817 18.6043 242.921 18.61ZM240.97 18.6559C240.896 18.7233 240.79 18.7345 240.705 18.6841C240.387 18.4062 240.291 18.256 240.144 18.0253C240.119 17.9856 240.092 17.9436 240.062 17.8981C239.446 18.5578 239.01 18.7551 238.212 18.7551C237.268 18.7551 236.533 18.1423 236.533 16.9168C236.533 15.9595 237.03 15.3092 237.725 14.9898C238.238 14.753 238.923 14.6795 239.515 14.6159C239.625 14.6041 239.732 14.5927 239.834 14.5805V14.4281C239.834 14.3991 239.834 14.3695 239.834 14.3396V14.3395V14.3395V14.3394V14.3394V14.3394C239.836 14.0795 239.839 13.7902 239.698 13.5721C239.561 13.355 239.301 13.2663 239.068 13.2663C238.64 13.2663 238.259 13.497 238.166 13.974C238.154 14.0853 238.072 14.1744 237.967 14.1912L236.889 14.0669C236.835 14.0588 236.787 14.0279 236.755 13.9813C236.724 13.9348 236.712 13.8767 236.722 13.8206C236.971 12.4343 238.163 12.0157 239.23 12.0157C239.776 12.0157 240.489 12.1681 240.918 12.6023C241.422 13.098 241.419 13.7468 241.415 14.4559C241.415 14.5145 241.415 14.5734 241.415 14.6327V16.469C241.415 16.9635 241.589 17.2095 241.773 17.4686L241.773 17.4687C241.795 17.4994 241.817 17.5304 241.839 17.5619C241.91 17.6663 241.926 17.7968 241.839 17.8751C241.609 18.0766 241.202 18.4482 240.979 18.658L240.97 18.6559ZM239.839 15.781L239.839 15.8382C239.839 16.2724 239.84 16.6406 239.629 17.0337C239.451 17.3657 239.168 17.5703 238.852 17.5703C238.422 17.5703 238.171 17.2258 238.171 16.7143C238.171 15.71 239.028 15.5273 239.839 15.5273V15.781ZM256.476 17.4643C256.498 17.4951 256.52 17.5261 256.541 17.5577C256.617 17.6663 256.633 17.7937 256.536 17.8657C256.307 18.0672 255.9 18.4398 255.676 18.6486C255.602 18.715 255.496 18.7258 255.411 18.6758C255.092 18.3967 254.998 18.2487 254.849 18.015C254.824 17.9759 254.797 17.9345 254.768 17.8897C254.152 18.5494 253.713 18.7467 252.919 18.7467C251.975 18.7467 251.24 18.134 251.24 16.9095C251.24 15.9512 251.733 15.3008 252.436 14.9814C252.951 14.7437 253.639 14.6706 254.233 14.6075C254.341 14.596 254.446 14.5849 254.545 14.5732V14.4239C254.545 14.395 254.546 14.3655 254.546 14.3356C254.548 14.0756 254.55 13.7862 254.408 13.569C254.275 13.3519 254.01 13.2621 253.779 13.2621C253.351 13.2621 252.972 13.4928 252.877 13.9698C252.865 14.081 252.784 14.1699 252.679 14.187L251.591 14.0638C251.537 14.056 251.488 14.025 251.457 13.9782C251.425 13.9313 251.413 13.8728 251.423 13.8164C251.674 12.429 252.865 12.0115 253.933 12.0115C254.478 12.0115 255.191 12.1639 255.621 12.5982C256.125 13.0912 256.122 13.7351 256.118 14.4405C256.118 14.5027 256.117 14.5654 256.117 14.6285V16.4658C256.117 16.9593 256.292 17.2052 256.476 17.4643ZM253.56 17.564C253.875 17.564 254.159 17.3594 254.337 17.0285C254.548 16.6332 254.548 16.2633 254.547 15.8236L254.547 15.7768V15.5221C253.736 15.5221 252.879 15.7037 252.879 16.709C252.879 17.2195 253.13 17.564 253.56 17.564ZM257.491 12.3351V13.1973C257.49 13.2565 257.513 13.3133 257.553 13.3545C257.593 13.3958 257.648 13.4178 257.704 13.4155H259.635L257.421 16.756C257.32 16.9352 257.272 17.1421 257.284 17.35V18.2321C257.284 18.3594 257.418 18.5045 257.546 18.4325C258.767 17.7671 260.219 17.7644 261.442 18.4252C261.582 18.5014 261.714 18.3542 261.714 18.2269V17.2999C261.71 17.1581 261.634 17.0294 261.515 16.9627C260.871 16.5817 260.121 16.47 259.412 16.4877L261.323 13.6212C261.5 13.3644 261.6 13.2015 261.6 13.0773V12.3351C261.6 12.2761 261.578 12.2195 261.538 12.1783C261.498 12.1371 261.443 12.1149 261.387 12.1169H257.7C257.644 12.1136 257.589 12.1354 257.549 12.177C257.509 12.2186 257.488 12.276 257.491 12.3351Z" fill="black"/>
<path fill-rule="evenodd" clip-rule="evenodd" d="M259.335 22.4597C259.59 21.7926 260.158 20.2978 259.888 19.9355H259.89C259.621 19.5725 258.112 19.763 257.433 19.8487L257.431 19.8489C257.225 19.875 257.193 19.686 257.379 19.5493C258.584 18.6588 260.559 18.9136 260.789 19.2142C261.018 19.5148 260.726 21.5964 259.597 22.5902C259.423 22.7426 259.257 22.6612 259.335 22.4597ZM251.223 23.489C253.848 23.489 256.906 22.6173 259.012 20.9836V20.9868C259.361 20.7112 259.062 20.3061 258.706 20.4648C256.407 21.4842 253.939 22.0163 251.444 22.0307C247.983 22.0307 244.634 21.0327 241.925 19.376C241.688 19.2309 241.511 19.4867 241.71 19.6735C244.318 22.1471 247.71 23.5078 251.223 23.489Z" fill="#FF9900"/>
<path d="M290.5 4C290.5 2.067 292.067 0.5 294 0.5H332C333.933 0.5 335.5 2.067 335.5 4V28C335.5 29.933 333.933 31.5 332 31.5H294C292.067 31.5 290.5 29.933 290.5 28V4Z" fill="white"/>
<path d="M290.5 4C290.5 2.067 292.067 0.5 294 0.5H332C333.933 0.5 335.5 2.067 335.5 4V28C335.5 29.933 333.933 31.5 332 31.5H294C292.067 31.5 290.5 29.933 290.5 28V4Z" stroke="#E4E7EC"/>
<path fill-rule="evenodd" clip-rule="evenodd" d="M312.905 22.4392C311.327 23.7699 309.279 24.5732 307.041 24.5732C302.048 24.5732 298 20.5736 298 15.6399C298 10.7061 302.048 6.70654 307.041 6.70654C309.279 6.70654 311.327 7.50987 312.905 8.8406C314.484 7.50987 316.532 6.70654 318.77 6.70654C323.763 6.70654 327.811 10.7061 327.811 15.6399C327.811 20.5736 323.763 24.5732 318.77 24.5732C316.532 24.5732 314.484 23.7699 312.905 22.4392Z" fill="#ED0006"/>
<path fill-rule="evenodd" clip-rule="evenodd" d="M312.905 22.4392C314.849 20.8006 316.082 18.3625 316.082 15.6399C316.082 12.9173 314.849 10.4791 312.905 8.8406C314.484 7.50987 316.532 6.70654 318.77 6.70654C323.763 6.70654 327.811 10.7061 327.811 15.6399C327.811 20.5736 323.763 24.5732 318.77 24.5732C316.532 24.5732 314.484 23.7699 312.905 22.4392Z" fill="#F9A000"/>
<path fill-rule="evenodd" clip-rule="evenodd" d="M312.905 22.4393C314.849 20.8008 316.082 18.3627 316.082 15.6401C316.082 12.9175 314.849 10.4794 312.905 8.84082C310.961 10.4794 309.729 12.9175 309.729 15.6401C309.729 18.3627 310.961 20.8008 312.905 22.4393Z" fill="#FF5E00"/>
<path d="M348.5 4C348.5 2.067 350.067 0.5 352 0.5H390C391.933 0.5 393.5 2.067 393.5 4V28C393.5 29.933 391.933 31.5 390 31.5H352C350.067 31.5 348.5 29.933 348.5 28V4Z" fill="white"/>
<path d="M348.5 4C348.5 2.067 350.067 0.5 352 0.5H390C391.933 0.5 393.5 2.067 393.5 4V28C393.5 29.933 391.933 31.5 390 31.5H352C350.067 31.5 348.5 29.933 348.5 28V4Z" stroke="#E4E7EC"/>
<path d="M359.839 11.731H353.495C352.669 11.731 352 12.4064 352 13.2387V19.6365C352 20.4689 352.669 21.1443 353.495 21.1443H359.839C360.666 21.1443 361.334 20.4689 361.334 19.6365V13.2387C361.335 12.4055 360.666 11.731 359.839 11.731Z" fill="#1677FF"/>
<path d="M359.685 17.642C359.312 17.5159 358.811 17.3228 358.253 17.1191C358.588 16.531 358.856 15.8618 359.032 15.1343H357.192V14.466H359.446V14.093H357.192V12.9785H356.272C356.111 12.9785 356.111 13.139 356.111 13.139V14.0921H353.832V14.4651H356.111V15.1335H354.228V15.5064H357.879C357.746 15.9702 357.566 16.4067 357.353 16.8026C356.169 16.4084 354.905 16.0893 354.111 16.2859C353.603 16.412 353.276 16.6368 353.084 16.8731C352.202 17.955 352.834 19.5985 354.697 19.5985C355.798 19.5985 356.859 18.9796 357.68 17.9594C358.907 18.5537 361.334 19.5747 361.334 19.5747V18.1199C361.335 18.1199 361.03 18.0952 359.685 17.642ZM354.523 18.9699C353.071 18.9699 352.641 17.8166 353.359 17.1852C353.599 16.9719 354.036 16.8678 354.269 16.8449C355.131 16.7594 355.93 17.0909 356.873 17.5547C356.21 18.4258 355.367 18.9699 354.523 18.9699Z" fill="white"/>
<path d="M372.269 13.1092C372.269 13.5959 372.625 13.9239 373.121 13.9239C373.618 13.9239 373.974 13.5959 373.974 13.1092C373.974 12.6313 373.618 12.2944 373.121 12.2944C372.625 12.2944 372.269 12.6313 372.269 13.1092Z" fill="#1677FF"/>
<path d="M371.369 12.5H369.89V19.3369H371.369V12.5Z" fill="black"/>
<path d="M367.296 12.7344H365.31L363.091 19.3377H364.458L364.833 18.045H367.184L367.54 19.3377H369.291L367.296 12.7344ZM365.142 16.9676L366.022 13.9238H366.059L366.892 16.9676H365.142Z" fill="black"/>
<path d="M373.86 14.3169H372.381V19.3375H373.86V14.3169Z" fill="black"/>
<path d="M389.324 14.3266L389.333 14.3169H387.938L387.058 17.3703H387.011L385.999 14.3169H384.342L386.336 19.356L385.503 20.892V20.929H386.804L389.324 14.3266Z" fill="black"/>
<path d="M377.542 14.2139C376.999 14.2139 376.578 14.4202 376.1 14.8134V14.317H374.62V20.9291H376.1V19.29C376.381 19.3649 376.643 19.4028 376.961 19.4028C378.282 19.4028 379.471 18.4285 379.471 16.6959C379.471 15.1414 378.61 14.2139 377.542 14.2139ZM376.605 18.4753C376.436 18.4753 376.277 18.4568 376.099 18.4003V15.6846C376.408 15.4695 376.66 15.3663 376.979 15.3663C377.532 15.3663 377.972 15.8063 377.972 16.7436C377.972 17.9418 377.326 18.4753 376.605 18.4753Z" fill="black"/>
<path d="M384.051 18.082V15.9844C384.051 14.8417 383.377 14.2139 382.187 14.2139C381.428 14.2139 380.904 14.3452 379.948 14.6353L380.21 15.7878C381.081 15.3945 381.465 15.2261 381.868 15.2261C382.355 15.2261 382.571 15.5726 382.571 16.1069V16.144C380.875 16.4623 380.35 16.6404 380.023 16.9684C379.78 17.2117 379.677 17.5583 379.677 17.9612C379.677 18.9258 380.426 19.4408 381.128 19.4408C381.653 19.4408 382.074 19.2441 382.646 18.813L382.749 19.3376H384.228L384.051 18.082ZM382.571 18.1199C382.178 18.3351 381.953 18.4197 381.692 18.4197C381.335 18.4197 381.11 18.1852 381.11 17.8113C381.11 17.6711 381.139 17.5301 381.251 17.4181C381.429 17.24 381.775 17.1086 382.571 16.9217V18.1199Z" fill="black"/>
<path d="M406.5 4C406.5 2.067 408.067 0.5 410 0.5H448C449.933 0.5 451.5 2.067 451.5 4V28C451.5 29.933 449.933 31.5 448 31.5H410C408.067 31.5 406.5 29.933 406.5 28V4Z" fill="white"/>
<path d="M406.5 4C406.5 2.067 408.067 0.5 410 0.5H448C449.933 0.5 451.5 2.067 451.5 4V28C451.5 29.933 449.933 31.5 448 31.5H410C408.067 31.5 406.5 29.933 406.5 28V4Z" stroke="#E4E7EC"/>
<path fill-rule="evenodd" clip-rule="evenodd" d="M425.485 24.5979L425.779 22.6657L425.124 22.6499H421.993L424.169 8.39176C424.176 8.34858 424.197 8.3085 424.229 8.27999C424.262 8.25148 424.303 8.23584 424.346 8.23584H429.624C431.377 8.23584 432.586 8.61269 433.217 9.35661C433.513 9.7056 433.702 10.0704 433.793 10.4717C433.889 10.8928 433.89 11.396 433.797 12.0097L433.79 12.0543V12.4476L434.086 12.621C434.336 12.7577 434.534 12.9141 434.686 13.0932C434.939 13.3916 435.103 13.7709 435.172 14.2204C435.243 14.6828 435.22 15.2332 435.103 15.8562C434.968 16.5728 434.749 17.1969 434.454 17.7076C434.183 18.1781 433.838 18.5685 433.427 18.8709C433.036 19.1583 432.57 19.3764 432.044 19.516C431.534 19.6532 430.953 19.7225 430.315 19.7225H429.904C429.611 19.7225 429.325 19.8318 429.101 20.0278C428.877 20.2279 428.728 20.5013 428.683 20.8002L428.652 20.9742L428.132 24.3799L428.108 24.5048C428.102 24.5444 428.091 24.5641 428.075 24.5775C428.061 24.5897 428.041 24.5979 428.022 24.5979H425.485Z" fill="#28356A"/>
<path fill-rule="evenodd" clip-rule="evenodd" d="M434.367 12.0996C434.351 12.2037 434.333 12.3101 434.313 12.4194C433.617 16.1136 431.235 17.3898 428.193 17.3898H426.645C426.273 17.3898 425.959 17.6689 425.901 18.0482L424.884 24.7192C424.846 24.9683 425.032 25.1927 425.275 25.1927H428.022C428.347 25.1927 428.623 24.9485 428.675 24.6169L428.701 24.4727L429.219 21.0804L429.252 20.8944C429.303 20.5617 429.579 20.3173 429.905 20.3173H430.315C432.977 20.3173 435.06 19.2006 435.669 15.9688C435.923 14.6188 435.792 13.4915 435.119 12.6987C434.915 12.4597 434.662 12.2612 434.367 12.0996Z" fill="#298FC2"/>
<path fill-rule="evenodd" clip-rule="evenodd" d="M433.639 11.7997C433.532 11.7676 433.423 11.7386 433.31 11.7124C433.197 11.6868 433.081 11.6642 432.962 11.6443C432.544 11.5746 432.087 11.5415 431.596 11.5415H427.459C427.357 11.5415 427.26 11.5653 427.174 11.6083C426.983 11.7031 426.841 11.8898 426.807 12.1184L425.927 17.8805L425.901 18.0484C425.959 17.6692 426.273 17.3901 426.645 17.3901H428.194C431.235 17.3901 433.617 16.1132 434.313 12.4197C434.334 12.3104 434.351 12.204 434.367 12.0999C434.191 12.0032 434 11.9206 433.795 11.8502C433.744 11.8328 433.692 11.816 433.639 11.7997Z" fill="#22284F"/>
<path fill-rule="evenodd" clip-rule="evenodd" d="M426.807 12.1183C426.841 11.8897 426.983 11.703 427.174 11.6089C427.261 11.5657 427.357 11.5419 427.459 11.5419H431.597C432.087 11.5419 432.544 11.5751 432.962 11.6449C433.081 11.6646 433.197 11.6874 433.31 11.713C433.423 11.739 433.532 11.7682 433.639 11.8001C433.692 11.8164 433.744 11.8334 433.795 11.8502C434.001 11.9205 434.191 12.0038 434.368 12.0998C434.575 10.7346 434.366 9.8051 433.652 8.96342C432.864 8.0367 431.443 7.64014 429.625 7.64014H424.346C423.975 7.64014 423.658 7.91923 423.601 8.29917L421.402 22.704C421.359 22.9889 421.571 23.246 421.849 23.246H425.108L426.807 12.1183Z" fill="#28356A"/>
<path d="M464.5 4C464.5 2.067 466.067 0.5 468 0.5H506C507.933 0.5 509.5 2.067 509.5 4V28C509.5 29.933 507.933 31.5 506 31.5H468C466.067 31.5 464.5 29.933 464.5 28V4Z" fill="white"/>
<path d="M464.5 4C464.5 2.067 466.067 0.5 468 0.5H506C507.933 0.5 509.5 2.067 509.5 4V28C509.5 29.933 507.933 31.5 506 31.5H468C466.067 31.5 464.5 29.933 464.5 28V4Z" stroke="#E4E7EC"/>
<path fill-rule="evenodd" clip-rule="evenodd" d="M488.358 10.8559L486.055 11.3647V9.44269L488.358 8.94336V10.8559ZM493.147 11.9205C492.248 11.9205 491.67 12.3539 491.349 12.6554L491.229 12.0713H489.211V23.0566L491.505 22.5573L491.514 19.891C491.844 20.136 492.33 20.4846 493.138 20.4846C494.78 20.4846 496.275 19.1279 496.275 16.1413C496.266 13.4091 494.752 11.9205 493.147 11.9205ZM492.596 18.4118C492.055 18.4118 491.734 18.214 491.514 17.969L491.505 14.4737C491.743 14.2005 492.073 14.0121 492.596 14.0121C493.431 14.0121 494.009 14.973 494.009 16.2072C494.009 17.4697 493.44 18.4118 492.596 18.4118ZM503.505 16.2355C503.505 13.8236 502.367 11.9205 500.193 11.9205C498.01 11.9205 496.688 13.8236 496.688 16.2167C496.688 19.0525 498.248 20.4845 500.487 20.4845C501.578 20.4845 502.404 20.2302 503.028 19.8722V17.9879C502.404 18.3082 501.689 18.5061 500.78 18.5061C499.89 18.5061 499.101 18.1857 499 17.074H503.487C503.487 17.0221 503.49 16.9041 503.494 16.7682C503.499 16.5835 503.505 16.3658 503.505 16.2355ZM498.973 15.3405C498.973 14.2759 499.606 13.8331 500.184 13.8331C500.744 13.8331 501.34 14.2759 501.34 15.3405H498.973ZM486.055 12.0807H488.358V20.3244H486.055V12.0807ZM483.44 12.0807L483.587 12.7779C484.128 11.7604 485.202 11.9676 485.495 12.0807V14.2476C485.211 14.144 484.294 14.0121 483.752 14.7375V20.3244H481.459V12.0807H483.44ZM479 10.0362L476.761 10.5261L476.752 18.0727C476.752 19.467 477.77 20.494 479.128 20.494C479.88 20.494 480.431 20.3526 480.734 20.1831V18.2705C480.44 18.393 478.991 18.8264 478.991 17.432V14.0874H480.734V12.0807H478.991L479 10.0362ZM473.578 13.965C473.091 13.965 472.798 14.1063 472.798 14.4737C472.798 14.8749 473.303 15.0514 473.93 15.2703C474.952 15.6272 476.297 16.097 476.302 17.8372C476.302 19.5236 474.99 20.494 473.082 20.494C472.293 20.494 471.431 20.3338 470.577 19.957V17.7147C471.348 18.1481 472.321 18.4684 473.082 18.4684C473.596 18.4684 473.963 18.3271 473.963 17.8937C473.963 17.4493 473.415 17.2462 472.754 17.001C471.747 16.6275 470.477 16.1564 470.477 14.5868C470.477 12.9192 471.715 11.9205 473.578 11.9205C474.339 11.9205 475.091 12.043 475.853 12.3539V14.5679C475.156 14.1817 474.275 13.965 473.578 13.965Z" fill="#6461FC"/>
</svg>
