<svg width="100" height="16" viewBox="0 0 100 16" fill="none" xmlns="http://www.w3.org/2000/svg">
<g clip-path="url(#clip0_20428_1851)">
<path d="M5.33301 10.6668V12.5335C5.33301 13.2802 5.33301 13.6536 5.47833 13.9388C5.60616 14.1897 5.81014 14.3937 6.06102 14.5215C6.34624 14.6668 6.7196 14.6668 7.46634 14.6668H12.533C13.2797 14.6668 13.6531 14.6668 13.9383 14.5215C14.1892 14.3937 14.3932 14.1897 14.521 13.9388C14.6663 13.6536 14.6663 13.2802 14.6663 12.5335V7.46683C14.6663 6.72009 14.6663 6.34672 14.521 6.06151C14.3932 5.81063 14.1892 5.60665 13.9383 5.47882C13.6531 5.3335 13.2797 5.3335 12.533 5.3335H10.6663M3.46634 10.6668H8.53301C9.27974 10.6668 9.65311 10.6668 9.93833 10.5215C10.1892 10.3937 10.3932 10.1897 10.521 9.93882C10.6663 9.6536 10.6663 9.28023 10.6663 8.5335V3.46683C10.6663 2.72009 10.6663 2.34672 10.521 2.06151C10.3932 1.81063 10.1892 1.60665 9.93833 1.47882C9.65311 1.3335 9.27974 1.3335 8.53301 1.3335H3.46634C2.7196 1.3335 2.34624 1.3335 2.06102 1.47882C1.81014 1.60665 1.60616 1.81063 1.47833 2.06151C1.33301 2.34672 1.33301 2.72009 1.33301 3.46683V8.5335C1.33301 9.28023 1.33301 9.6536 1.47833 9.93882C1.60616 10.1897 1.81014 10.3937 2.06102 10.5215C2.34624 10.6668 2.7196 10.6668 3.46634 10.6668Z" stroke="black" stroke-width="2" stroke-linecap="round" stroke-linejoin="round"/>
</g>
<g clip-path="url(#clip1_20428_1851)">
<path d="M44 8C44 3.58172 40.4183 0 36 0C31.5817 0 28 3.58172 28 8C28 11.993 30.9255 15.3027 34.75 15.9028V10.3125H32.7188V8H34.75V6.2375C34.75 4.2325 35.9444 3.125 37.7717 3.125C38.6467 3.125 39.5625 3.28125 39.5625 3.28125V5.25H38.5538C37.56 5.25 37.25 5.86672 37.25 6.5V8H39.4688L39.1141 10.3125H37.25V15.9028C41.0745 15.3027 44 11.993 44 8Z" fill="#1877F2"/>
<path d="M39.1141 10.3125L39.4688 8H37.25V6.5C37.25 5.86734 37.56 5.25 38.5538 5.25H39.5625V3.28125C39.5625 3.28125 38.647 3.125 37.7717 3.125C35.9444 3.125 34.75 4.2325 34.75 6.2375V8H32.7188V10.3125H34.75V15.9028C35.5783 16.0324 36.4217 16.0324 37.25 15.9028V10.3125H39.1141Z" fill="white"/>
</g>
<rect x="57" y="1" width="14" height="14" rx="6" fill="url(#paint0_radial_20428_1851)"/>
<rect x="57" y="1" width="14" height="14" rx="6" fill="url(#paint1_radial_20428_1851)"/>
<rect x="57" y="1" width="14" height="14" rx="6" fill="url(#paint2_radial_20428_1851)"/>
<path d="M67.5 5.25C67.5 5.66421 67.1642 6 66.75 6C66.3358 6 66 5.66421 66 5.25C66 4.83579 66.3358 4.5 66.75 4.5C67.1642 4.5 67.5 4.83579 67.5 5.25Z" fill="white"/>
<path fill-rule="evenodd" clip-rule="evenodd" d="M64 10.5C65.3807 10.5 66.5 9.38071 66.5 8C66.5 6.61929 65.3807 5.5 64 5.5C62.6193 5.5 61.5 6.61929 61.5 8C61.5 9.38071 62.6193 10.5 64 10.5ZM64 9.5C64.8284 9.5 65.5 8.82843 65.5 8C65.5 7.17157 64.8284 6.5 64 6.5C63.1716 6.5 62.5 7.17157 62.5 8C62.5 8.82843 63.1716 9.5 64 9.5Z" fill="white"/>
<path fill-rule="evenodd" clip-rule="evenodd" d="M59 7.8C59 6.11984 59 5.27976 59.327 4.63803C59.6146 4.07354 60.0735 3.6146 60.638 3.32698C61.2798 3 62.1198 3 63.8 3H64.2C65.8802 3 66.7202 3 67.362 3.32698C67.9265 3.6146 68.3854 4.07354 68.673 4.63803C69 5.27976 69 6.11984 69 7.8V8.2C69 9.88016 69 10.7202 68.673 11.362C68.3854 11.9265 67.9265 12.3854 67.362 12.673C66.7202 13 65.8802 13 64.2 13H63.8C62.1198 13 61.2798 13 60.638 12.673C60.0735 12.3854 59.6146 11.9265 59.327 11.362C59 10.7202 59 9.88016 59 8.2V7.8ZM63.8 4H64.2C65.0566 4 65.6389 4.00078 66.089 4.03755C66.5274 4.07337 66.7516 4.1383 66.908 4.21799C67.2843 4.40973 67.5903 4.71569 67.782 5.09202C67.8617 5.24842 67.9266 5.47262 67.9624 5.91104C67.9992 6.36113 68 6.94342 68 7.8V8.2C68 9.05658 67.9992 9.63887 67.9624 10.089C67.9266 10.5274 67.8617 10.7516 67.782 10.908C67.5903 11.2843 67.2843 11.5903 66.908 11.782C66.7516 11.8617 66.5274 11.9266 66.089 11.9624C65.6389 11.9992 65.0566 12 64.2 12H63.8C62.9434 12 62.3611 11.9992 61.911 11.9624C61.4726 11.9266 61.2484 11.8617 61.092 11.782C60.7157 11.5903 60.4097 11.2843 60.218 10.908C60.1383 10.7516 60.0734 10.5274 60.0376 10.089C60.0008 9.63887 60 9.05658 60 8.2V7.8C60 6.94342 60.0008 6.36113 60.0376 5.91104C60.0734 5.47262 60.1383 5.24842 60.218 5.09202C60.4097 4.71569 60.7157 4.40973 61.092 4.21799C61.2484 4.1383 61.4726 4.07337 61.911 4.03755C62.3611 4.00078 62.9434 4 63.8 4Z" fill="white"/>
<circle cx="92" cy="8" r="7" fill="white"/>
<path d="M92 15C95.866 15 99 11.866 99 8C99 4.13401 95.866 1 92 1C88.134 1 85 4.13401 85 8C85 10.8401 86.6913 13.2851 89.1217 14.3828C89.125 14.307 89.1287 14.2376 89.1318 14.178C89.1361 14.0969 89.1394 14.0341 89.1394 13.9988C89.1394 13.7885 89.2825 12.7452 89.2825 12.7452L90.1575 9.15264C90.0228 8.93389 89.9219 8.47115 89.9219 8.11778C89.9219 6.48557 90.8305 6.13221 91.3858 6.13221C92.0925 6.13221 92.2524 6.89783 92.2524 7.46153C92.2524 7.7597 92.0977 8.22642 91.9386 8.70669C91.7699 9.21572 91.5962 9.73997 91.5962 10.0949C91.5962 10.7849 92.2776 11.1298 92.7488 11.1298C93.994 11.1298 95.1382 9.5649 95.1382 7.99999C95.1382 6.43509 94.4063 4.54206 92.0084 4.54206C89.6106 4.54206 88.5337 6.36778 88.5337 7.76442C88.5337 8.70672 88.887 9.39663 89.0637 9.51442C89.1142 9.55929 89.2 9.69783 89.1394 9.89302C89.0788 10.0882 88.9684 10.524 88.9207 10.7175C88.9151 10.7624 88.8618 10.8387 88.6935 10.7849C88.4832 10.7175 87.1454 9.8762 87.1454 7.76442C87.1454 5.65264 88.8029 3.19591 92.0084 3.19591C95.2139 3.19591 96.8546 5.34975 96.8546 7.99999C96.8546 10.6502 94.7091 12.3413 93.0769 12.3413C91.7712 12.3413 91.2596 11.758 91.1671 11.4663L90.6707 13.3594C90.5535 13.6734 90.3348 14.2379 90.0652 14.7292C90.6797 14.9055 91.3288 15 92 15Z" fill="#BB0F23"/>
<defs>
<radialGradient id="paint0_radial_20428_1851" cx="0" cy="0" r="1" gradientUnits="userSpaceOnUse" gradientTransform="translate(62 11.5) rotate(-55.3758) scale(12.7598)">
<stop stop-color="#B13589"/>
<stop offset="0.79309" stop-color="#C62F94"/>
<stop offset="1" stop-color="#8A3AC8"/>
</radialGradient>
<radialGradient id="paint1_radial_20428_1851" cx="0" cy="0" r="1" gradientUnits="userSpaceOnUse" gradientTransform="translate(61.5 15.5) rotate(-65.1363) scale(11.2971)">
<stop stop-color="#E0E8B7"/>
<stop offset="0.444662" stop-color="#FB8A2E"/>
<stop offset="0.71474" stop-color="#E2425C"/>
<stop offset="1" stop-color="#E2425C" stop-opacity="0"/>
</radialGradient>
<radialGradient id="paint2_radial_20428_1851" cx="0" cy="0" r="1" gradientUnits="userSpaceOnUse" gradientTransform="translate(56.25 1.5) rotate(-8.1301) scale(19.4454 4.15918)">
<stop offset="0.156701" stop-color="#406ADC"/>
<stop offset="0.467799" stop-color="#6A45BE"/>
<stop offset="1" stop-color="#6A45BE" stop-opacity="0"/>
</radialGradient>
<clipPath id="clip0_20428_1851">
<rect width="16" height="16" fill="white"/>
</clipPath>
<clipPath id="clip1_20428_1851">
<rect width="16" height="16" fill="white" transform="translate(28)"/>
</clipPath>
</defs>
</svg>
