<svg width="108" height="20" viewBox="0 0 108 20" fill="none" xmlns="http://www.w3.org/2000/svg">
<path d="M10.3434 14.8985L14.2809 17.3985C14.7887 17.7188 15.4137 17.2422 15.2653 16.6563L14.1246 12.1719C14.0938 12.0476 14.0987 11.9171 14.1388 11.7955C14.1789 11.6738 14.2525 11.566 14.3512 11.4844L17.8824 8.53908C18.3434 8.15627 18.109 7.38283 17.5074 7.34377L12.8981 7.04689C12.7723 7.03958 12.6514 6.99578 12.5501 6.92086C12.4488 6.84594 12.3716 6.74314 12.3278 6.62502L10.609 2.29689C10.5635 2.17182 10.4806 2.06377 10.3716 1.98742C10.2626 1.91107 10.1327 1.87012 9.99963 1.87012C9.86654 1.87012 9.73667 1.91107 9.62765 1.98742C9.51863 2.06377 9.43575 2.17182 9.39025 2.29689L7.6715 6.62502C7.6277 6.74314 7.55044 6.84594 7.44915 6.92086C7.34787 6.99578 7.22696 7.03958 7.10119 7.04689L2.49182 7.34377C1.89026 7.38283 1.65588 8.15627 2.11682 8.53908L5.64807 11.4844C5.74677 11.566 5.8204 11.6738 5.86048 11.7955C5.90057 11.9171 5.90547 12.0476 5.87463 12.1719L4.81994 16.3281C4.64026 17.0313 5.39026 17.6016 5.99182 17.2188L9.65588 14.8985C9.75863 14.8331 9.87787 14.7984 9.99963 14.7984C10.1214 14.7984 10.2406 14.8331 10.3434 14.8985Z" fill="#FA8232"/>
<path d="M32.3434 14.8985L36.2809 17.3985C36.7887 17.7188 37.4137 17.2422 37.2653 16.6563L36.1246 12.1719C36.0938 12.0476 36.0987 11.9171 36.1388 11.7955C36.1789 11.6738 36.2525 11.566 36.3512 11.4844L39.8824 8.53908C40.3434 8.15627 40.109 7.38283 39.5074 7.34377L34.8981 7.04689C34.7723 7.03958 34.6514 6.99578 34.5501 6.92086C34.4488 6.84594 34.3716 6.74314 34.3278 6.62502L32.609 2.29689C32.5635 2.17182 32.4806 2.06377 32.3716 1.98742C32.2626 1.91107 32.1327 1.87012 31.9996 1.87012C31.8665 1.87012 31.7367 1.91107 31.6277 1.98742C31.5186 2.06377 31.4358 2.17182 31.3903 2.29689L29.6715 6.62502C29.6277 6.74314 29.5504 6.84594 29.4492 6.92086C29.3479 6.99578 29.227 7.03958 29.1012 7.04689L24.4918 7.34377C23.8903 7.38283 23.6559 8.15627 24.1168 8.53908L27.6481 11.4844C27.7468 11.566 27.8204 11.6738 27.8605 11.7955C27.9006 11.9171 27.9055 12.0476 27.8746 12.1719L26.8199 16.3281C26.6403 17.0313 27.3903 17.6016 27.9918 17.2188L31.6559 14.8985C31.7586 14.8331 31.8779 14.7984 31.9996 14.7984C32.1214 14.7984 32.2406 14.8331 32.3434 14.8985Z" fill="#FA8232"/>
<path d="M54.3434 14.8985L58.2809 17.3985C58.7887 17.7188 59.4137 17.2422 59.2653 16.6563L58.1246 12.1719C58.0938 12.0476 58.0987 11.9171 58.1388 11.7955C58.1789 11.6738 58.2525 11.566 58.3512 11.4844L61.8824 8.53908C62.3434 8.15627 62.109 7.38283 61.5074 7.34377L56.8981 7.04689C56.7723 7.03958 56.6514 6.99578 56.5501 6.92086C56.4488 6.84594 56.3716 6.74314 56.3278 6.62502L54.609 2.29689C54.5635 2.17182 54.4806 2.06377 54.3716 1.98742C54.2626 1.91107 54.1327 1.87012 53.9996 1.87012C53.8665 1.87012 53.7367 1.91107 53.6277 1.98742C53.5186 2.06377 53.4358 2.17182 53.3903 2.29689L51.6715 6.62502C51.6277 6.74314 51.5504 6.84594 51.4492 6.92086C51.3479 6.99578 51.227 7.03958 51.1012 7.04689L46.4918 7.34377C45.8903 7.38283 45.6559 8.15627 46.1168 8.53908L49.6481 11.4844C49.7468 11.566 49.8204 11.6738 49.8605 11.7955C49.9006 11.9171 49.9055 12.0476 49.8746 12.1719L48.8199 16.3281C48.6403 17.0313 49.3903 17.6016 49.9918 17.2188L53.6559 14.8985C53.7586 14.8331 53.8779 14.7984 53.9996 14.7984C54.1214 14.7984 54.2406 14.8331 54.3434 14.8985Z" fill="#FA8232"/>
<path d="M76.3434 14.8985L80.2809 17.3985C80.7887 17.7188 81.4137 17.2422 81.2653 16.6563L80.1246 12.1719C80.0938 12.0476 80.0987 11.9171 80.1388 11.7955C80.1789 11.6738 80.2525 11.566 80.3512 11.4844L83.8824 8.53908C84.3434 8.15627 84.109 7.38283 83.5074 7.34377L78.8981 7.04689C78.7723 7.03958 78.6514 6.99578 78.5501 6.92086C78.4488 6.84594 78.3716 6.74314 78.3278 6.62502L76.609 2.29689C76.5635 2.17182 76.4806 2.06377 76.3716 1.98742C76.2626 1.91107 76.1327 1.87012 75.9996 1.87012C75.8665 1.87012 75.7367 1.91107 75.6277 1.98742C75.5186 2.06377 75.4358 2.17182 75.3903 2.29689L73.6715 6.62502C73.6277 6.74314 73.5504 6.84594 73.4492 6.92086C73.3479 6.99578 73.227 7.03958 73.1012 7.04689L68.4918 7.34377C67.8903 7.38283 67.6559 8.15627 68.1168 8.53908L71.6481 11.4844C71.7468 11.566 71.8204 11.6738 71.8605 11.7955C71.9006 11.9171 71.9055 12.0476 71.8746 12.1719L70.8199 16.3281C70.6403 17.0313 71.3903 17.6016 71.9918 17.2188L75.6559 14.8985C75.7586 14.8331 75.8779 14.7984 75.9996 14.7984C76.1214 14.7984 76.2406 14.8331 76.3434 14.8985Z" fill="#FA8232"/>
<path d="M98.3434 14.8985L102.281 17.3985C102.789 17.7188 103.414 17.2422 103.265 16.6563L102.125 12.1719C102.094 12.0476 102.099 11.9171 102.139 11.7955C102.179 11.6738 102.252 11.566 102.351 11.4844L105.882 8.53908C106.343 8.15627 106.109 7.38283 105.507 7.34377L100.898 7.04689C100.772 7.03958 100.651 6.99578 100.55 6.92086C100.449 6.84594 100.372 6.74314 100.328 6.62502L98.609 2.29689C98.5635 2.17182 98.4806 2.06377 98.3716 1.98742C98.2626 1.91107 98.1327 1.87012 97.9996 1.87012C97.8665 1.87012 97.7367 1.91107 97.6277 1.98742C97.5186 2.06377 97.4358 2.17182 97.3903 2.29689L95.6715 6.62502C95.6277 6.74314 95.5504 6.84594 95.4492 6.92086C95.3479 6.99578 95.227 7.03958 95.1012 7.04689L90.4918 7.34377C89.8903 7.38283 89.6559 8.15627 90.1168 8.53908L93.6481 11.4844C93.7468 11.566 93.8204 11.6738 93.8605 11.7955C93.9006 11.9171 93.9055 12.0476 93.8746 12.1719L92.8199 16.3281C92.6403 17.0313 93.3903 17.6016 93.9918 17.2188L97.6559 14.8985C97.7586 14.8331 97.8779 14.7984 97.9996 14.7984C98.1214 14.7984 98.2406 14.8331 98.3434 14.8985Z" fill="#FA8232"/>
</svg>
